<svg xmlns="http://www.w3.org/2000/svg" xmlns:xlink="http://www.w3.org/1999/xlink" width="641" zoomAndPan="magnify" viewBox="0 0 480.75 248.250006" height="331" preserveAspectRatio="xMidYMid meet" version="1.0"><defs><g/><clipPath id="839fde0bab"><path d="M 76.128906 75 L 201.8125 75 L 201.8125 172.253906 L 76.128906 172.253906 Z M 76.128906 75 " clip-rule="nonzero"/></clipPath></defs><g clip-path="url(#839fde0bab)"><path fill="#0d6efc" d="M 98.546875 75.152344 C 99.242188 75.152344 99.933594 75.21875 100.617188 75.355469 C 101.296875 75.488281 101.960938 75.691406 102.605469 75.957031 C 103.25 76.222656 103.859375 76.550781 104.4375 76.9375 C 105.019531 77.324219 105.554688 77.761719 106.046875 78.253906 C 106.539062 78.75 106.976562 79.285156 107.363281 79.863281 C 107.753906 80.441406 108.078125 81.054688 108.347656 81.699219 C 108.613281 82.34375 108.8125 83.003906 108.949219 83.6875 C 109.085938 84.371094 109.152344 85.0625 109.15625 85.761719 C 109.15625 86.457031 109.085938 87.148438 108.953125 87.832031 C 108.816406 88.515625 108.613281 89.179688 108.347656 89.824219 C 108.082031 90.464844 107.753906 91.078125 107.367188 91.65625 C 106.980469 92.238281 106.542969 92.773438 106.050781 93.265625 C 105.558594 93.757812 105.023438 94.199219 104.445312 94.585938 C 103.867188 94.972656 103.253906 95.300781 102.613281 95.566406 C 101.96875 95.835938 101.304688 96.035156 100.621094 96.171875 C 99.941406 96.308594 99.25 96.375 98.554688 96.375 C 97.859375 96.375 97.167969 96.304688 96.488281 96.171875 C 95.804688 96.035156 95.140625 95.832031 94.496094 95.566406 C 93.855469 95.296875 93.246094 94.96875 92.664062 94.582031 C 92.085938 94.195312 91.550781 93.753906 91.058594 93.261719 C 90.566406 92.769531 90.128906 92.230469 89.742188 91.652344 C 89.355469 91.074219 89.03125 90.460938 88.765625 89.816406 C 88.5 89.171875 88.296875 88.507812 88.164062 87.824219 C 88.027344 87.140625 87.960938 86.449219 87.960938 85.753906 C 87.960938 85.058594 88.027344 84.367188 88.164062 83.683594 C 88.300781 83.003906 88.5 82.339844 88.765625 81.695312 C 89.03125 81.054688 89.359375 80.441406 89.746094 79.863281 C 90.132812 79.285156 90.570312 78.75 91.0625 78.257812 C 91.554688 77.765625 92.089844 77.324219 92.667969 76.9375 C 93.242188 76.550781 93.855469 76.226562 94.496094 75.960938 C 95.136719 75.691406 95.800781 75.492188 96.480469 75.355469 C 97.164062 75.21875 97.851562 75.152344 98.546875 75.152344 Z M 91.070312 98.402344 L 94.835938 108.285156 L 95.234375 108.285156 L 97.066406 101.957031 L 96.042969 100.882812 C 95.304688 99.804688 95.5625 98.578125 96.929688 98.351562 C 97.425781 98.316406 97.921875 98.316406 98.414062 98.351562 C 98.957031 98.320312 99.5 98.339844 100.039062 98.414062 C 101.308594 98.699219 101.441406 99.929688 100.808594 100.910156 L 99.785156 101.988281 L 101.699219 108.285156 L 102.085938 108.285156 L 105.480469 98.402344 C 105.632812 98.539062 105.792969 98.664062 105.964844 98.78125 C 106.949219 98.871094 107.875 99.160156 108.734375 99.652344 C 110.039062 99.914062 111.0625 100.59375 111.804688 101.699219 L 119.882812 112.875 L 125.640625 113.980469 L 125.640625 92.226562 L 117.460938 92.226562 C 117.207031 92.226562 116.964844 92.179688 116.730469 92.082031 C 116.5 91.984375 116.292969 91.847656 116.113281 91.667969 C 115.9375 91.488281 115.796875 91.285156 115.703125 91.050781 C 115.605469 90.816406 115.558594 90.574219 115.558594 90.320312 C 115.558594 90.070312 115.605469 89.824219 115.703125 89.59375 C 115.796875 89.359375 115.9375 89.152344 116.113281 88.972656 C 116.292969 88.796875 116.5 88.65625 116.730469 88.5625 C 116.964844 88.464844 117.207031 88.417969 117.460938 88.417969 L 155.457031 88.417969 L 155.457031 82.855469 C 155.476562 82.613281 155.535156 82.382812 155.640625 82.164062 C 155.746094 81.949219 155.886719 81.757812 156.0625 81.589844 C 156.242188 81.425781 156.441406 81.300781 156.667969 81.210938 C 156.890625 81.125 157.125 81.078125 157.367188 81.078125 C 157.605469 81.078125 157.839844 81.125 158.066406 81.210938 C 158.289062 81.300781 158.492188 81.425781 158.667969 81.589844 C 158.84375 81.757812 158.984375 81.949219 159.089844 82.164062 C 159.195312 82.382812 159.253906 82.613281 159.273438 82.855469 L 159.273438 88.46875 L 199.707031 88.46875 C 199.957031 88.46875 200.199219 88.515625 200.433594 88.613281 C 200.667969 88.707031 200.875 88.847656 201.050781 89.023438 C 201.230469 89.203125 201.367188 89.410156 201.464844 89.644531 C 201.5625 89.875 201.609375 90.121094 201.609375 90.371094 C 201.609375 90.625 201.5625 90.867188 201.464844 91.101562 C 201.367188 91.335938 201.230469 91.542969 201.050781 91.71875 C 200.875 91.898438 200.667969 92.035156 200.433594 92.132812 C 200.199219 92.230469 199.957031 92.277344 199.707031 92.277344 L 191.59375 92.277344 L 191.59375 139.402344 L 199.890625 139.402344 C 200.140625 139.402344 200.386719 139.453125 200.617188 139.546875 C 200.851562 139.644531 201.058594 139.78125 201.234375 139.960938 C 201.414062 140.140625 201.550781 140.34375 201.648438 140.578125 C 201.742188 140.8125 201.792969 141.054688 201.792969 141.308594 C 201.792969 141.5625 201.742188 141.804688 201.648438 142.035156 C 201.550781 142.269531 201.414062 142.476562 201.234375 142.65625 C 201.058594 142.832031 200.851562 142.972656 200.617188 143.066406 C 200.386719 143.164062 200.140625 143.214844 199.890625 143.214844 L 159.539062 143.214844 L 159.539062 151.96875 C 159.625 152.042969 159.710938 152.113281 159.804688 152.175781 L 171.691406 163.441406 C 171.890625 163.609375 172.050781 163.808594 172.167969 164.042969 C 172.285156 164.277344 172.351562 164.523438 172.367188 164.785156 C 172.382812 165.046875 172.347656 165.300781 172.257812 165.546875 C 172.167969 165.792969 172.03125 166.011719 171.851562 166.199219 C 171.671875 166.390625 171.460938 166.539062 171.222656 166.640625 C 170.980469 166.742188 170.730469 166.792969 170.46875 166.792969 C 170.207031 166.792969 169.957031 166.738281 169.71875 166.632812 C 169.480469 166.527344 169.269531 166.378906 169.09375 166.1875 L 159.539062 157.089844 L 159.539062 165.285156 C 159.523438 165.527344 159.460938 165.757812 159.355469 165.972656 C 159.25 166.191406 159.109375 166.382812 158.933594 166.546875 C 158.757812 166.714844 158.554688 166.839844 158.332031 166.929688 C 158.105469 167.015625 157.875 167.0625 157.632812 167.0625 C 157.390625 167.0625 157.15625 167.015625 156.933594 166.929688 C 156.707031 166.839844 156.507812 166.714844 156.328125 166.546875 C 156.152344 166.382812 156.011719 166.191406 155.90625 165.972656 C 155.804688 165.757812 155.742188 165.527344 155.722656 165.285156 L 155.722656 156.765625 L 145.8125 166.195312 C 145.632812 166.371094 145.421875 166.503906 145.1875 166.597656 C 144.953125 166.6875 144.710938 166.730469 144.457031 166.722656 C 144.207031 166.714844 143.964844 166.660156 143.734375 166.558594 C 143.503906 166.453125 143.304688 166.308594 143.132812 166.125 C 142.957031 165.945312 142.824219 165.738281 142.730469 165.503906 C 142.640625 165.269531 142.597656 165.023438 142.605469 164.773438 C 142.609375 164.523438 142.667969 164.28125 142.769531 164.050781 C 142.875 163.824219 143.019531 163.621094 143.203125 163.453125 L 155.089844 152.183594 C 155.273438 152.007812 155.484375 151.871094 155.722656 151.785156 L 155.722656 143.214844 L 117.417969 143.214844 C 117.167969 143.214844 116.925781 143.164062 116.691406 143.066406 C 116.457031 142.972656 116.253906 142.832031 116.074219 142.65625 C 115.894531 142.476562 115.757812 142.269531 115.660156 142.035156 C 115.566406 141.804688 115.515625 141.5625 115.515625 141.308594 C 115.515625 141.054688 115.566406 140.8125 115.660156 140.578125 C 115.757812 140.34375 115.894531 140.140625 116.074219 139.960938 C 116.253906 139.78125 116.457031 139.644531 116.691406 139.546875 C 116.925781 139.453125 117.167969 139.402344 117.417969 139.402344 L 125.601562 139.402344 L 125.601562 124.140625 L 116.121094 122.265625 C 114.804688 122.042969 113.746094 121.394531 112.949219 120.320312 L 108.929688 114.738281 L 108.929688 114.882812 L 108.601562 131.046875 L 112.695312 156.898438 L 114.238281 165.757812 C 115.105469 171.675781 106.054688 175.191406 103.816406 167.414062 L 98.539062 136.257812 L 93.167969 167.917969 C 92.144531 173.644531 82.804688 173.695312 82.746094 166.738281 L 88.667969 131.25 L 88.21875 112.085938 C 87.710938 112.707031 87.304688 113.390625 87 114.136719 C 86.363281 115.632812 86.023438 117.199219 85.976562 118.824219 L 85.160156 130 C 84.707031 135.839844 76.023438 136.195312 76.128906 129.898438 C 76.179688 127.070312 76.433594 124.222656 76.742188 121.324219 C 77.335938 115.773438 77.457031 112.332031 80.617188 106.800781 C 81.8125 104.726562 83.34375 102.949219 85.21875 101.464844 C 86.703125 100.292969 88.367188 99.5 90.210938 99.089844 C 90.515625 98.882812 90.800781 98.652344 91.070312 98.402344 Z M 129.449219 114.339844 L 140.144531 103.074219 C 140.375 102.816406 140.640625 102.613281 140.949219 102.46875 C 141.261719 102.320312 141.585938 102.238281 141.929688 102.226562 C 142.269531 102.210938 142.601562 102.265625 142.921875 102.382812 C 143.242188 102.503906 143.527344 102.683594 143.773438 102.917969 C 144.023438 103.15625 144.214844 103.429688 144.351562 103.746094 C 144.488281 104.058594 144.558594 104.386719 144.5625 104.730469 C 144.566406 105.074219 144.5 105.402344 144.371094 105.71875 C 144.238281 106.035156 144.050781 106.316406 143.808594 106.554688 L 133.742188 117.144531 C 134.222656 117.921875 134.46875 118.765625 134.488281 119.675781 C 134.507812 120.589844 134.292969 121.441406 133.847656 122.234375 C 133.398438 123.03125 132.78125 123.65625 131.996094 124.113281 C 131.207031 124.570312 130.359375 124.792969 129.449219 124.785156 L 129.449219 139.402344 L 187.820312 139.402344 L 187.820312 92.226562 L 129.449219 92.226562 Z M 129.449219 114.339844 " fill-opacity="1" fill-rule="evenodd"/></g><g fill="#0d6efc" fill-opacity="1"><g transform="translate(215.262426, 129.330828)"><g><path d="M 15.125 -16.390625 L 15.125 -20.921875 L 0.28125 -20.921875 L 0.28125 -16.390625 L 1.890625 -16.390625 L 1.890625 -19.234375 L 6.671875 -19.234375 L 6.671875 -1.4375 L 4.390625 -1.4375 L 4.390625 0 L 11.03125 0 L 11.03125 -1.4375 L 8.734375 -1.4375 L 8.734375 -19.234375 L 13.53125 -19.234375 L 13.53125 -16.390625 Z M 15.125 -16.390625 "/></g></g></g><g fill="#0d6efc" fill-opacity="1"><g transform="translate(230.676712, 129.330828)"><g><path d="M 5.078125 -16.390625 L 2 -16.390625 L 2 -14.953125 L 3.71875 -14.953125 L 3.71875 -1.4375 L 2 -1.4375 L 2 0 L 8.03125 0 L 8.03125 -1.4375 L 5.734375 -1.4375 L 5.734375 -11.140625 C 7.035156 -13.535156 9.03125 -14.78125 11.71875 -14.875 L 11.71875 -16.796875 C 9.039062 -16.703125 7.035156 -15.515625 5.703125 -13.234375 Z M 5.078125 -16.390625 "/></g></g></g><g fill="#0d6efc" fill-opacity="1"><g transform="translate(242.681514, 129.330828)"><g><path d="M 12.75 0 L 15.8125 0 L 15.8125 -1.4375 L 14.09375 -1.4375 L 14.09375 -12.203125 C 14.09375 -15.265625 12.203125 -16.796875 8.421875 -16.796875 C 7.273438 -16.796875 6.316406 -16.679688 5.546875 -16.453125 C 4.785156 -16.222656 4.203125 -15.863281 3.796875 -15.375 C 3.390625 -14.882812 3.09375 -14.363281 2.90625 -13.8125 C 2.726562 -13.257812 2.609375 -12.570312 2.546875 -11.75 L 4.234375 -11.65625 C 4.316406 -12.84375 4.628906 -13.710938 5.171875 -14.265625 C 5.710938 -14.828125 6.796875 -15.109375 8.421875 -15.109375 C 10.867188 -15.109375 12.09375 -14.140625 12.09375 -12.203125 L 12.09375 -9.34375 L 6.796875 -9 C 4.859375 -8.863281 3.546875 -8.429688 2.859375 -7.703125 C 2.171875 -6.984375 1.828125 -5.800781 1.828125 -4.15625 C 1.828125 -2.644531 2.1875 -1.503906 2.90625 -0.734375 C 3.625 0.0234375 4.878906 0.40625 6.671875 0.40625 C 8.703125 0.40625 10.554688 -0.347656 12.234375 -1.859375 Z M 6.96875 -1.234375 C 5.800781 -1.234375 4.976562 -1.46875 4.5 -1.9375 C 4.019531 -2.40625 3.78125 -3.113281 3.78125 -4.0625 C 3.78125 -5.363281 3.992188 -6.238281 4.421875 -6.6875 C 4.859375 -7.132812 5.6875 -7.398438 6.90625 -7.484375 L 12.09375 -7.796875 L 12.09375 -3.46875 C 10.53125 -1.976562 8.820312 -1.234375 6.96875 -1.234375 Z M 6.96875 -1.234375 "/></g></g></g><g fill="#0d6efc" fill-opacity="1"><g transform="translate(260.215975, 129.330828)"><g><path d="M 2 -14.953125 L 3.71875 -14.953125 L 3.71875 -1.4375 L 2 -1.4375 L 2 0 L 7.453125 0 L 7.453125 -1.4375 L 5.734375 -1.4375 L 5.734375 -16.390625 L 2 -16.390625 Z M 4.734375 -19.25 C 5.285156 -19.25 5.632812 -19.382812 5.78125 -19.65625 C 5.9375 -19.925781 6.015625 -20.300781 6.015625 -20.78125 C 6.015625 -21.101562 5.992188 -21.351562 5.953125 -21.53125 C 5.921875 -21.71875 5.800781 -21.894531 5.59375 -22.0625 C 5.394531 -22.238281 5.109375 -22.328125 4.734375 -22.328125 C 4.367188 -22.328125 4.085938 -22.238281 3.890625 -22.0625 C 3.703125 -21.894531 3.585938 -21.71875 3.546875 -21.53125 C 3.515625 -21.351562 3.5 -21.101562 3.5 -20.78125 C 3.5 -20.46875 3.515625 -20.21875 3.546875 -20.03125 C 3.585938 -19.851562 3.703125 -19.675781 3.890625 -19.5 C 4.085938 -19.332031 4.367188 -19.25 4.734375 -19.25 Z M 4.734375 -19.25 "/></g></g></g><g fill="#0d6efc" fill-opacity="1"><g transform="translate(269.38432, 129.330828)"><g><path d="M 2 -14.953125 L 3.71875 -14.953125 L 3.71875 -1.4375 L 2 -1.4375 L 2 0 L 7.453125 0 L 7.453125 -1.4375 L 5.734375 -1.4375 L 5.734375 -12.984375 C 7.503906 -14.398438 9.363281 -15.109375 11.3125 -15.109375 C 12.40625 -15.109375 13.1875 -14.835938 13.65625 -14.296875 C 14.125 -13.765625 14.359375 -12.894531 14.359375 -11.6875 L 14.359375 -1.4375 L 12.640625 -1.4375 L 12.640625 0 L 18.078125 0 L 18.078125 -1.4375 L 16.359375 -1.4375 L 16.359375 -11.65625 C 16.359375 -13.414062 15.988281 -14.710938 15.25 -15.546875 C 14.519531 -16.378906 13.316406 -16.796875 11.640625 -16.796875 C 9.515625 -16.796875 7.488281 -16.050781 5.5625 -14.5625 L 5.078125 -16.390625 L 2 -16.390625 Z M 2 -14.953125 "/></g></g></g><g fill="#0d6efc" fill-opacity="1"><g transform="translate(289.182213, 129.330828)"><g/></g></g><g fill="#0d6efc" fill-opacity="1"><g transform="translate(297.34777, 129.330828)"><g><path d="M 18.171875 0 L 23.671875 0 L 23.671875 -1.4375 L 21.953125 -1.4375 L 21.953125 -19.484375 L 23.671875 -19.484375 L 23.671875 -20.921875 L 19.109375 -20.921875 L 12.640625 -4.0625 L 6.5625 -20.921875 L 2 -20.921875 L 2 -19.484375 L 3.71875 -19.484375 L 3.71875 -1.4375 L 2 -1.4375 L 2 0 L 7.515625 0 L 7.515625 -1.4375 L 5.78125 -1.4375 L 5.78125 -17.453125 L 11.578125 -1.609375 L 13.640625 -1.609375 L 19.890625 -17.6875 L 19.890625 -1.4375 L 18.171875 -1.4375 Z M 18.171875 0 "/></g></g></g><g fill="#0d6efc" fill-opacity="1"><g transform="translate(323.019135, 129.330828)"><g><path d="M 8.71875 -1.296875 C 7.800781 -1.296875 7.019531 -1.429688 6.375 -1.703125 C 5.738281 -1.984375 5.25 -2.316406 4.90625 -2.703125 C 4.570312 -3.097656 4.3125 -3.632812 4.125 -4.3125 C 3.9375 -4.988281 3.820312 -5.597656 3.78125 -6.140625 C 3.738281 -6.691406 3.71875 -7.375 3.71875 -8.1875 C 3.71875 -9.007812 3.738281 -9.691406 3.78125 -10.234375 C 3.820312 -10.785156 3.9375 -11.398438 4.125 -12.078125 C 4.3125 -12.753906 4.570312 -13.285156 4.90625 -13.671875 C 5.25 -14.066406 5.738281 -14.40625 6.375 -14.6875 C 7.019531 -14.96875 7.800781 -15.109375 8.71875 -15.109375 C 9.632812 -15.109375 10.410156 -14.96875 11.046875 -14.6875 C 11.679688 -14.40625 12.164062 -14.066406 12.5 -13.671875 C 12.84375 -13.285156 13.109375 -12.753906 13.296875 -12.078125 C 13.484375 -11.398438 13.597656 -10.785156 13.640625 -10.234375 C 13.679688 -9.691406 13.703125 -9.007812 13.703125 -8.1875 C 13.703125 -7.375 13.679688 -6.691406 13.640625 -6.140625 C 13.597656 -5.597656 13.484375 -4.988281 13.296875 -4.3125 C 13.109375 -3.632812 12.84375 -3.097656 12.5 -2.703125 C 12.164062 -2.316406 11.679688 -1.984375 11.046875 -1.703125 C 10.410156 -1.429688 9.632812 -1.296875 8.71875 -1.296875 Z M 8.71875 0.40625 C 9.59375 0.40625 10.378906 0.316406 11.078125 0.140625 C 11.773438 -0.0234375 12.363281 -0.25 12.84375 -0.53125 C 13.332031 -0.8125 13.753906 -1.171875 14.109375 -1.609375 C 14.460938 -2.046875 14.738281 -2.492188 14.9375 -2.953125 C 15.144531 -3.410156 15.304688 -3.945312 15.421875 -4.5625 C 15.535156 -5.1875 15.609375 -5.769531 15.640625 -6.3125 C 15.679688 -6.863281 15.703125 -7.488281 15.703125 -8.1875 C 15.703125 -8.894531 15.679688 -9.519531 15.640625 -10.0625 C 15.609375 -10.613281 15.535156 -11.195312 15.421875 -11.8125 C 15.304688 -12.4375 15.144531 -12.976562 14.9375 -13.4375 C 14.738281 -13.894531 14.460938 -14.34375 14.109375 -14.78125 C 13.753906 -15.226562 13.332031 -15.585938 12.84375 -15.859375 C 12.363281 -16.140625 11.773438 -16.363281 11.078125 -16.53125 C 10.378906 -16.707031 9.585938 -16.796875 8.703125 -16.796875 C 7.828125 -16.796875 7.039062 -16.707031 6.34375 -16.53125 C 5.644531 -16.363281 5.050781 -16.140625 4.5625 -15.859375 C 4.082031 -15.585938 3.664062 -15.226562 3.3125 -14.78125 C 2.957031 -14.34375 2.675781 -13.894531 2.46875 -13.4375 C 2.269531 -12.976562 2.113281 -12.4375 2 -11.8125 C 1.882812 -11.195312 1.804688 -10.613281 1.765625 -10.0625 C 1.734375 -9.519531 1.71875 -8.894531 1.71875 -8.1875 C 1.71875 -7.488281 1.734375 -6.863281 1.765625 -6.3125 C 1.804688 -5.769531 1.882812 -5.1875 2 -4.5625 C 2.113281 -3.945312 2.269531 -3.410156 2.46875 -2.953125 C 2.675781 -2.492188 2.957031 -2.046875 3.3125 -1.609375 C 3.664062 -1.171875 4.082031 -0.8125 4.5625 -0.53125 C 5.050781 -0.25 5.644531 -0.0234375 6.34375 0.140625 C 7.039062 0.316406 7.832031 0.40625 8.71875 0.40625 Z M 8.71875 0.40625 "/></g></g></g><g fill="#0d6efc" fill-opacity="1"><g transform="translate(340.438996, 129.330828)"><g><path d="M 13.4375 0 L 16.5 0 L 16.5 -1.4375 L 14.78125 -1.4375 L 14.78125 -21.484375 L 11.0625 -21.484375 L 11.0625 -20.0625 L 12.78125 -20.0625 L 12.78125 -15.765625 C 11.132812 -16.453125 9.550781 -16.796875 8.03125 -16.796875 C 6.9375 -16.796875 5.992188 -16.628906 5.203125 -16.296875 C 4.410156 -15.972656 3.789062 -15.5625 3.34375 -15.0625 C 2.90625 -14.570312 2.554688 -13.925781 2.296875 -13.125 C 2.046875 -12.320312 1.882812 -11.550781 1.8125 -10.8125 C 1.75 -10.082031 1.71875 -9.207031 1.71875 -8.1875 C 1.71875 -7.175781 1.75 -6.300781 1.8125 -5.5625 C 1.882812 -4.832031 2.046875 -4.066406 2.296875 -3.265625 C 2.546875 -2.460938 2.882812 -1.8125 3.3125 -1.3125 C 3.738281 -0.820312 4.335938 -0.410156 5.109375 -0.078125 C 5.890625 0.242188 6.8125 0.40625 7.875 0.40625 C 9.726562 0.40625 11.457031 -0.300781 13.0625 -1.71875 Z M 8.21875 -1.296875 C 6.445312 -1.296875 5.253906 -1.875 4.640625 -3.03125 C 4.023438 -4.195312 3.71875 -5.921875 3.71875 -8.203125 C 3.71875 -9.285156 3.78125 -10.207031 3.90625 -10.96875 C 4.03125 -11.738281 4.25 -12.453125 4.5625 -13.109375 C 4.882812 -13.765625 5.351562 -14.257812 5.96875 -14.59375 C 6.59375 -14.9375 7.375 -15.109375 8.3125 -15.109375 C 9.894531 -15.109375 11.382812 -14.78125 12.78125 -14.125 L 12.78125 -3.203125 C 11.382812 -1.929688 9.863281 -1.296875 8.21875 -1.296875 Z M 8.21875 -1.296875 "/></g></g></g><g fill="#0d6efc" fill-opacity="1"><g transform="translate(358.661085, 129.330828)"><g><path d="M 8.859375 0.40625 C 10.078125 0.40625 11.101562 0.265625 11.9375 -0.015625 C 12.769531 -0.304688 13.398438 -0.722656 13.828125 -1.265625 C 14.253906 -1.816406 14.5625 -2.382812 14.75 -2.96875 C 14.945312 -3.550781 15.082031 -4.253906 15.15625 -5.078125 L 13.5 -5.15625 C 13.382812 -3.894531 13 -2.9375 12.34375 -2.28125 C 11.695312 -1.625 10.515625 -1.296875 8.796875 -1.296875 C 6.898438 -1.296875 5.632812 -1.785156 5 -2.765625 C 4.363281 -3.742188 4.035156 -5.398438 4.015625 -7.734375 L 15.421875 -7.734375 L 15.421875 -8.203125 C 15.421875 -9.210938 15.378906 -10.082031 15.296875 -10.8125 C 15.222656 -11.550781 15.050781 -12.320312 14.78125 -13.125 C 14.519531 -13.925781 14.15625 -14.570312 13.6875 -15.0625 C 13.21875 -15.5625 12.566406 -15.972656 11.734375 -16.296875 C 10.898438 -16.628906 9.898438 -16.796875 8.734375 -16.796875 C 7.566406 -16.796875 6.5625 -16.628906 5.71875 -16.296875 C 4.882812 -15.972656 4.226562 -15.5625 3.75 -15.0625 C 3.269531 -14.570312 2.894531 -13.925781 2.625 -13.125 C 2.363281 -12.320312 2.191406 -11.550781 2.109375 -10.8125 C 2.035156 -10.082031 2 -9.210938 2 -8.203125 C 2 -5.203125 2.472656 -3.015625 3.421875 -1.640625 C 4.367188 -0.273438 6.179688 0.40625 8.859375 0.40625 Z M 8.71875 -15.109375 C 9.6875 -15.109375 10.488281 -14.960938 11.125 -14.671875 C 11.769531 -14.378906 12.242188 -13.941406 12.546875 -13.359375 C 12.859375 -12.785156 13.070312 -12.191406 13.1875 -11.578125 C 13.300781 -10.960938 13.363281 -10.207031 13.375 -9.3125 L 4.015625 -9.3125 C 4.035156 -10.175781 4.101562 -10.910156 4.21875 -11.515625 C 4.34375 -12.128906 4.5625 -12.726562 4.875 -13.3125 C 5.195312 -13.894531 5.675781 -14.335938 6.3125 -14.640625 C 6.957031 -14.953125 7.757812 -15.109375 8.71875 -15.109375 Z M 8.71875 -15.109375 "/></g></g></g><g fill="#0d6efc" fill-opacity="1"><g transform="translate(375.794427, 129.330828)"><g><path d="M 1.71875 -20.0625 L 3.4375 -20.0625 L 3.4375 -1.4375 L 1.71875 -1.4375 L 1.71875 0 L 7.15625 0 L 7.15625 -1.4375 L 5.4375 -1.4375 L 5.4375 -21.484375 L 1.71875 -21.484375 Z M 1.71875 -20.0625 "/></g></g></g><g fill="#0d6efc" fill-opacity="1"><g transform="translate(384.676265, 129.330828)"><g><path d="M 12.171875 -16.390625 L 12.203125 -14.734375 C 11.328125 -16.109375 9.753906 -16.796875 7.484375 -16.796875 C 5.703125 -16.796875 4.359375 -16.378906 3.453125 -15.546875 C 2.546875 -14.710938 2.09375 -13.617188 2.09375 -12.265625 C 2.09375 -10.828125 2.472656 -9.789062 3.234375 -9.15625 C 4.003906 -8.519531 5.273438 -7.972656 7.046875 -7.515625 L 9.28125 -6.90625 C 10.394531 -6.613281 11.171875 -6.257812 11.609375 -5.84375 C 12.046875 -5.425781 12.265625 -4.875 12.265625 -4.1875 C 12.265625 -2.257812 10.96875 -1.296875 8.375 -1.296875 C 5.425781 -1.296875 3.789062 -2.789062 3.46875 -5.78125 L 2.15625 -5.78125 L 2.15625 0 L 3.609375 0 L 3.546875 -2.125 C 4.546875 -0.4375 6.238281 0.40625 8.625 0.40625 C 12.382812 0.40625 14.265625 -1.125 14.265625 -4.1875 C 14.265625 -5.539062 13.882812 -6.535156 13.125 -7.171875 C 12.375 -7.816406 11.125 -8.378906 9.375 -8.859375 L 7.140625 -9.453125 C 6.003906 -9.742188 5.210938 -10.09375 4.765625 -10.5 C 4.316406 -10.914062 4.09375 -11.515625 4.09375 -12.296875 C 4.09375 -13.128906 4.363281 -13.804688 4.90625 -14.328125 C 5.457031 -14.847656 6.316406 -15.109375 7.484375 -15.109375 C 8.335938 -15.109375 9.019531 -15.050781 9.53125 -14.9375 C 10.050781 -14.832031 10.519531 -14.625 10.9375 -14.3125 C 11.363281 -14 11.679688 -13.546875 11.890625 -12.953125 C 12.097656 -12.359375 12.242188 -11.578125 12.328125 -10.609375 L 13.640625 -10.609375 L 13.640625 -16.390625 Z M 12.171875 -16.390625 "/></g></g></g></svg>