<svg xmlns="http://www.w3.org/2000/svg" xmlns:xlink="http://www.w3.org/1999/xlink" width="551" zoomAndPan="magnify" viewBox="0 0 413.25 221.249992" height="295" preserveAspectRatio="xMidYMid meet" version="1.0"><defs><g/><clipPath id="c4117bbc21"><path d="M 100.433594 88.113281 L 148.585938 88.113281 L 148.585938 136.265625 L 100.433594 136.265625 Z M 100.433594 88.113281 " clip-rule="nonzero"/></clipPath><clipPath id="7b6572854c"><path d="M 113.757812 93.179688 L 143.125 93.179688 L 143.125 131.894531 L 113.757812 131.894531 Z M 113.757812 93.179688 " clip-rule="nonzero"/></clipPath><clipPath id="e0940a1107"><path d="M 113.710938 93 L 138 93 L 138 128 L 113.710938 128 Z M 113.710938 93 " clip-rule="nonzero"/></clipPath><clipPath id="3ca559cf44"><path d="M 113.757812 96.894531 L 143.125 96.894531 L 143.125 131.894531 L 113.757812 131.894531 Z M 113.757812 96.894531 " clip-rule="nonzero"/></clipPath><clipPath id="283f79d102"><path d="M 113.710938 99 L 135 99 L 135 131 L 113.710938 131 Z M 113.710938 99 " clip-rule="nonzero"/></clipPath></defs><g clip-path="url(#c4117bbc21)"><path fill="#cfa11b" d="M 100.433594 88.113281 L 100.433594 136.265625 L 148.585938 136.265625 L 148.585938 88.113281 Z M 147.355469 135.039062 L 101.660156 135.039062 L 101.660156 89.34375 L 147.351562 89.34375 L 147.351562 135.039062 Z M 147.355469 135.039062 " fill-opacity="1" fill-rule="nonzero"/></g><g clip-path="url(#7b6572854c)"><path fill="#b4b3b2" d="M 141.84375 123.804688 C 140.425781 122.886719 138.828125 122.683594 137.203125 122.695312 C 136.113281 122.699219 135.011719 122.796875 133.941406 122.839844 C 134.128906 121.652344 133.929688 120.433594 133.582031 119.234375 C 133.367188 118.484375 133.089844 117.746094 132.816406 117.03125 C 132.03125 114.984375 131.25 112.941406 130.464844 110.894531 C 129.621094 108.6875 128.773438 106.484375 127.929688 104.277344 C 127.957031 104.246094 127.980469 104.214844 128.003906 104.183594 C 128.289062 103.8125 128.511719 103.398438 128.660156 102.957031 C 128.699219 102.828125 128.734375 102.703125 128.761719 102.574219 C 128.785156 102.46875 128.804688 102.367188 128.820312 102.261719 C 128.871094 101.886719 128.867188 101.507812 128.8125 101.136719 C 128.738281 100.621094 128.5625 100.121094 128.304688 99.667969 C 128.53125 99.078125 128.757812 98.488281 128.984375 97.898438 C 129.414062 96.765625 129.855469 95.5625 129.644531 94.367188 C 129.625 94.261719 129.601562 94.15625 129.542969 94.070312 C 129.421875 93.886719 129.175781 93.824219 128.960938 93.859375 C 128.746094 93.890625 128.554688 94.007812 128.367188 94.121094 C 126.972656 94.988281 125.65625 95.980469 124.441406 97.085938 C 124.40625 97.074219 124.371094 97.0625 124.332031 97.054688 C 124.027344 96.96875 123.710938 96.921875 123.394531 96.914062 C 123.335938 96.910156 123.277344 96.910156 123.214844 96.914062 C 122.988281 96.914062 122.761719 96.9375 122.539062 96.980469 C 122.480469 96.992188 122.421875 97.003906 122.367188 97.015625 C 121.320312 95.925781 120.191406 94.917969 118.992188 94.007812 C 118.550781 93.675781 117.316406 92.65625 116.898438 93.511719 C 116.472656 94.390625 116.941406 95.765625 117.007812 96.691406 C 117.089844 97.9375 117.242188 99.183594 117.472656 100.414062 C 117.320312 100.753906 117.203125 101.109375 117.128906 101.46875 C 117.011719 102.027344 117 102.59375 117.117188 103.140625 C 117.148438 103.289062 117.1875 103.4375 117.238281 103.582031 C 117.28125 103.703125 117.332031 103.824219 117.386719 103.941406 C 117.527344 104.226562 117.707031 104.488281 117.90625 104.734375 L 117.90625 104.738281 C 118.039062 104.898438 118.179688 105.050781 118.324219 105.199219 C 117.628906 108.816406 116.738281 112.398438 115.652344 115.921875 C 115.34375 116.933594 115.015625 117.941406 114.671875 118.945312 C 114.484375 119.496094 114.292969 120.066406 114.144531 120.644531 C 113.859375 121.765625 113.75 122.910156 114.195312 123.953125 C 114.597656 124.894531 115.371094 125.574219 116.246094 126.132812 C 116.207031 126.136719 116.164062 126.144531 116.125 126.148438 C 115.703125 126.210938 115.285156 126.296875 114.871094 126.40625 C 114.394531 126.535156 113.839844 126.796875 113.796875 127.289062 C 113.753906 127.757812 114.21875 128.117188 114.664062 128.265625 C 115.460938 128.523438 116.328125 128.421875 117.160156 128.3125 C 117.636719 128.253906 118.117188 128.191406 118.59375 128.128906 C 118.613281 128.195312 118.628906 128.261719 118.648438 128.324219 C 118.742188 128.625 118.839844 128.921875 118.941406 129.214844 C 119.054688 129.550781 119.191406 129.914062 119.496094 130.09375 C 119.933594 130.355469 120.53125 130.085938 120.804688 129.660156 C 121.082031 129.230469 121.121094 128.695312 121.152344 128.1875 C 121.171875 127.882812 121.191406 127.574219 121.210938 127.269531 C 121.226562 127.273438 121.246094 127.277344 121.261719 127.277344 C 122.265625 127.445312 123.308594 127.382812 124.285156 127.101562 C 124.289062 127.101562 124.296875 127.097656 124.300781 127.097656 C 124.296875 127.105469 124.292969 127.117188 124.285156 127.125 C 124.089844 127.582031 123.800781 127.996094 123.640625 128.464844 C 123.570312 128.671875 123.527344 128.910156 123.628906 129.105469 C 123.753906 129.339844 124.046875 129.425781 124.3125 129.4375 C 125.257812 129.492188 126.152344 128.910156 126.726562 128.152344 C 126.925781 127.890625 127.089844 127.609375 127.238281 127.316406 C 127.246094 127.316406 127.257812 127.316406 127.269531 127.316406 C 127.699219 127.328125 128.132812 127.300781 128.515625 127.113281 C 128.683594 127.03125 128.839844 126.917969 129.015625 126.859375 C 129.027344 126.855469 129.039062 126.851562 129.050781 126.847656 C 129.308594 126.773438 129.582031 126.824219 129.847656 126.875 C 130.824219 127.070312 131.929688 127.253906 132.734375 126.667969 C 132.925781 126.527344 133.085938 126.351562 133.25 126.1875 C 133.273438 126.183594 133.292969 126.183594 133.316406 126.183594 C 134.394531 126.105469 135.46875 126.089844 136.542969 126.113281 C 137.289062 126.132812 138.03125 126.164062 138.777344 126.210938 C 138.867188 126.21875 138.957031 126.226562 139.03125 126.273438 C 139.191406 126.378906 139.1875 126.625 139.074219 126.777344 C 138.269531 127.847656 135.792969 127.132812 134.675781 127.203125 C 132.917969 127.316406 131.335938 128.464844 130.820312 130.183594 C 130.699219 130.589844 130.644531 131.042969 130.832031 131.421875 C 131.210938 132.175781 132.234375 131.894531 132.761719 131.492188 C 133.273438 131.097656 133.667969 130.542969 134.246094 130.25 C 134.664062 130.035156 135.140625 129.980469 135.605469 129.933594 C 137.53125 129.734375 139.753906 129.953125 141.5 128.957031 C 143.429688 127.851562 143.757812 125.039062 141.84375 123.804688 " fill-opacity="1" fill-rule="nonzero"/></g><g clip-path="url(#e0940a1107)"><path fill="#b4b3b2" d="M 117.472656 100.414062 C 117.242188 99.183594 117.089844 97.9375 117.007812 96.691406 C 116.941406 95.765625 116.472656 94.390625 116.898438 93.511719 C 117.316406 92.65625 118.550781 93.675781 118.992188 94.007812 C 120.191406 94.917969 121.320312 95.925781 122.367188 97.015625 C 122.421875 97.003906 122.480469 96.992188 122.539062 96.980469 C 122.523438 97.039062 122.511719 97.097656 122.5 97.160156 C 122.445312 97.445312 122.421875 97.734375 122.433594 98.027344 C 122.4375 98.074219 122.441406 98.128906 122.484375 98.164062 C 122.542969 98.214844 122.652344 98.203125 122.71875 98.160156 C 122.78125 98.113281 122.816406 98.046875 122.84375 97.984375 C 122.898438 97.863281 122.953125 97.738281 123 97.613281 C 123.085938 97.382812 123.160156 97.148438 123.214844 96.914062 C 123.277344 96.910156 123.335938 96.910156 123.394531 96.914062 C 123.46875 97.261719 123.574219 97.601562 123.714844 97.9375 C 123.765625 98.058594 123.898438 98.210938 124.046875 98.152344 C 124.109375 98.128906 124.140625 98.074219 124.164062 98.023438 C 124.292969 97.753906 124.351562 97.464844 124.339844 97.179688 C 124.339844 97.136719 124.335938 97.09375 124.332031 97.054688 C 124.371094 97.0625 124.40625 97.074219 124.441406 97.085938 C 125.65625 95.980469 126.972656 94.988281 128.367188 94.121094 C 128.554688 94.007812 128.746094 93.890625 128.960938 93.859375 C 129.175781 93.824219 129.421875 93.886719 129.542969 94.070312 C 129.601562 94.15625 129.625 94.261719 129.644531 94.367188 C 129.855469 95.5625 129.414062 96.765625 128.984375 97.898438 C 128.757812 98.488281 128.53125 99.078125 128.304688 99.667969 C 128.5625 100.121094 128.738281 100.621094 128.8125 101.136719 C 128.683594 101.089844 128.554688 101.0625 128.429688 101.054688 C 128.292969 101.046875 128.144531 101.097656 128.078125 101.214844 C 128.015625 101.324219 128.035156 101.457031 128.078125 101.574219 C 128.195312 101.90625 128.472656 102.269531 128.761719 102.574219 C 128.734375 102.703125 128.699219 102.828125 128.660156 102.957031 C 128.382812 102.683594 128.082031 102.4375 127.761719 102.214844 C 127.570312 102.085938 127.308594 101.964844 127.121094 102.101562 C 127 102.191406 126.964844 102.355469 126.972656 102.507812 C 126.992188 102.777344 127.125 103.027344 127.273438 103.257812 C 127.433594 103.511719 127.613281 103.75 127.8125 103.976562 C 127.875 104.046875 127.9375 104.117188 128.003906 104.183594 C 127.980469 104.214844 127.957031 104.246094 127.929688 104.277344 C 128.773438 106.484375 129.621094 108.6875 130.464844 110.894531 C 130.4375 111.332031 130.378906 111.765625 130.300781 112.191406 C 130.042969 113.617188 129.578125 114.996094 129.28125 116.414062 C 129.160156 116.992188 129.078125 117.640625 129.410156 118.128906 C 129.855469 118.792969 130.804688 118.824219 131.601562 118.792969 C 132.292969 118.761719 133.097656 118.792969 133.582031 119.234375 C 133.929688 120.433594 134.128906 121.652344 133.941406 122.839844 C 135.011719 122.796875 136.113281 122.699219 137.203125 122.695312 C 137.277344 123.214844 137.363281 123.734375 137.324219 124.253906 C 137.273438 124.9375 136.992188 125.597656 136.542969 126.113281 C 135.46875 126.089844 134.394531 126.105469 133.316406 126.183594 C 133.304688 126.171875 133.296875 126.160156 133.285156 126.148438 C 132.703125 125.53125 131.804688 125.214844 130.964844 125.355469 C 130.121094 125.492188 129.371094 126.085938 129.015625 126.859375 C 128.839844 126.917969 128.683594 127.03125 128.515625 127.113281 C 128.132812 127.300781 127.699219 127.328125 127.269531 127.316406 C 127.277344 127.273438 127.289062 127.230469 127.300781 127.1875 C 127.871094 124.796875 128.34375 122.367188 128.277344 119.90625 C 128.273438 119.695312 128.226562 119.433594 128.042969 119.378906 C 127.953125 119.351562 127.859375 119.386719 127.777344 119.429688 C 127.289062 119.6875 127.027344 120.257812 126.695312 120.726562 C 126.257812 121.339844 125.65625 121.808594 124.984375 122.066406 C 124.902344 122.097656 124.808594 122.128906 124.757812 122.207031 C 124.695312 122.292969 124.699219 122.414062 124.707031 122.523438 C 124.777344 123.425781 124.925781 124.324219 124.863281 125.226562 C 124.820312 125.867188 124.652344 126.53125 124.316406 127.050781 C 124.308594 127.070312 124.296875 127.085938 124.285156 127.101562 C 123.308594 127.382812 122.265625 127.445312 121.261719 127.277344 C 121.25 127.195312 121.238281 127.109375 121.226562 127.027344 C 121.101562 126.109375 121.082031 125.179688 121.167969 124.261719 C 121.207031 123.832031 121.269531 123.402344 121.199219 122.976562 C 121.128906 122.554688 120.894531 122.128906 120.503906 121.953125 C 120.152344 121.800781 119.738281 121.867188 119.378906 121.722656 C 118.589844 121.40625 118.425781 120.242188 117.640625 119.917969 C 117.554688 119.882812 117.460938 119.859375 117.371094 119.890625 C 117.152344 119.964844 117.164062 120.28125 117.21875 120.507812 C 117.769531 122.769531 118.207031 125.058594 118.523438 127.363281 C 118.480469 127.324219 118.4375 127.285156 118.390625 127.246094 C 118.15625 127.054688 117.886719 126.894531 117.613281 126.765625 C 117.28125 126.605469 116.933594 126.480469 116.59375 126.34375 C 116.4375 126.285156 116.277344 126.21875 116.125 126.148438 C 116.164062 126.144531 116.207031 126.136719 116.246094 126.132812 C 115.371094 125.574219 114.597656 124.894531 114.195312 123.953125 C 113.75 122.910156 113.859375 121.765625 114.144531 120.644531 C 114.304688 120.617188 114.46875 120.613281 114.625 120.628906 C 115.140625 120.6875 115.632812 120.90625 116.15625 120.933594 C 116.226562 120.9375 116.304688 120.933594 116.363281 120.894531 C 116.417969 120.851562 116.445312 120.785156 116.46875 120.71875 C 116.800781 119.738281 116.707031 118.652344 116.398438 117.660156 C 116.210938 117.054688 115.945312 116.480469 115.652344 115.921875 C 116.738281 112.398438 117.628906 108.816406 118.324219 105.199219 C 118.179688 105.050781 118.039062 104.898438 117.90625 104.738281 L 117.945312 104.707031 C 118.152344 104.527344 118.347656 104.335938 118.523438 104.128906 C 118.722656 103.90625 118.898438 103.667969 119.058594 103.417969 C 119.203125 103.1875 119.335938 102.941406 119.355469 102.667969 C 119.363281 102.519531 119.332031 102.351562 119.210938 102.265625 C 119.023438 102.125 118.761719 102.246094 118.570312 102.378906 C 118.074219 102.71875 117.625 103.125 117.238281 103.582031 C 117.1875 103.4375 117.148438 103.289062 117.117188 103.140625 L 117.148438 103.132812 C 117.539062 102.796875 118.074219 102.230469 118.253906 101.738281 C 118.296875 101.621094 118.3125 101.488281 118.253906 101.378906 C 118.1875 101.261719 118.039062 101.207031 117.902344 101.214844 C 117.652344 101.230469 117.382812 101.332031 117.128906 101.46875 C 117.203125 101.109375 117.320312 100.753906 117.472656 100.414062 " fill-opacity="1" fill-rule="nonzero"/></g><g clip-path="url(#3ca559cf44)"><path fill="#ebe7e8" d="M 123.003906 100.863281 C 121.433594 100.863281 120.160156 102.464844 120.160156 103.617188 C 120.160156 104.769531 121.433594 105.03125 123.003906 105.03125 C 124.574219 105.03125 125.847656 104.769531 125.847656 103.617188 C 125.847656 102.464844 124.574219 100.863281 123.003906 100.863281 Z M 115.652344 115.921875 C 115.34375 116.933594 115.015625 117.941406 114.671875 118.945312 C 114.484375 119.496094 114.292969 120.066406 114.144531 120.644531 C 114.304688 120.617188 114.46875 120.613281 114.625 120.628906 C 115.140625 120.6875 115.632812 120.90625 116.15625 120.933594 C 116.226562 120.9375 116.304688 120.933594 116.363281 120.894531 C 116.417969 120.851562 116.445312 120.785156 116.46875 120.71875 C 116.800781 119.738281 116.707031 118.652344 116.398438 117.660156 C 116.210938 117.054688 115.945312 116.480469 115.652344 115.921875 Z M 117.902344 101.214844 C 117.652344 101.230469 117.382812 101.332031 117.128906 101.46875 C 117.011719 102.027344 117 102.59375 117.117188 103.140625 L 117.148438 103.132812 C 117.539062 102.796875 118.074219 102.230469 118.253906 101.738281 C 118.296875 101.621094 118.3125 101.488281 118.253906 101.378906 C 118.1875 101.261719 118.039062 101.207031 117.902344 101.214844 Z M 118.523438 127.363281 C 118.480469 127.324219 118.4375 127.285156 118.390625 127.246094 C 118.15625 127.054688 117.886719 126.894531 117.613281 126.765625 C 117.28125 126.605469 116.933594 126.480469 116.59375 126.34375 C 116.4375 126.285156 116.277344 126.21875 116.125 126.148438 C 115.703125 126.210938 115.285156 126.296875 114.871094 126.40625 C 114.394531 126.535156 113.839844 126.796875 113.796875 127.289062 C 113.753906 127.757812 114.21875 128.117188 114.664062 128.265625 C 115.460938 128.523438 116.328125 128.421875 117.160156 128.3125 C 117.636719 128.253906 118.117188 128.191406 118.59375 128.128906 C 118.613281 128.195312 118.628906 128.261719 118.648438 128.324219 C 118.640625 128.257812 118.632812 128.191406 118.625 128.125 C 118.59375 127.871094 118.558594 127.617188 118.523438 127.363281 Z M 118.570312 102.378906 C 118.074219 102.71875 117.625 103.125 117.238281 103.582031 C 117.28125 103.703125 117.332031 103.824219 117.386719 103.941406 C 117.527344 104.226562 117.707031 104.488281 117.90625 104.734375 L 117.90625 104.738281 L 117.945312 104.707031 C 118.152344 104.527344 118.347656 104.335938 118.523438 104.128906 C 118.722656 103.90625 118.898438 103.667969 119.058594 103.417969 C 119.203125 103.1875 119.335938 102.941406 119.355469 102.667969 C 119.363281 102.519531 119.332031 102.351562 119.210938 102.265625 C 119.023438 102.125 118.761719 102.246094 118.570312 102.378906 Z M 121.226562 127.027344 C 121.101562 126.109375 121.082031 125.179688 121.167969 124.261719 C 121.207031 123.832031 121.269531 123.402344 121.199219 122.976562 C 121.128906 122.554688 120.894531 122.128906 120.503906 121.953125 C 120.152344 121.800781 119.738281 121.867188 119.378906 121.722656 C 118.589844 121.40625 118.425781 120.242188 117.640625 119.917969 C 117.554688 119.882812 117.460938 119.859375 117.371094 119.890625 C 117.152344 119.964844 117.164062 120.28125 117.21875 120.507812 C 117.769531 122.769531 118.207031 125.058594 118.523438 127.363281 C 118.558594 127.617188 118.59375 127.871094 118.625 128.125 C 118.632812 128.191406 118.640625 128.257812 118.648438 128.324219 C 118.742188 128.625 118.839844 128.921875 118.941406 129.214844 C 119.054688 129.550781 119.191406 129.914062 119.496094 130.09375 C 119.933594 130.355469 120.53125 130.085938 120.804688 129.660156 C 121.082031 129.230469 121.121094 128.695312 121.152344 128.1875 C 121.171875 127.882812 121.191406 127.574219 121.210938 127.269531 C 121.226562 127.273438 121.246094 127.277344 121.261719 127.277344 C 121.25 127.195312 121.238281 127.109375 121.226562 127.027344 Z M 122.539062 96.980469 C 122.523438 97.039062 122.511719 97.097656 122.5 97.160156 C 122.445312 97.445312 122.421875 97.734375 122.433594 98.027344 C 122.4375 98.074219 122.441406 98.128906 122.484375 98.164062 C 122.542969 98.214844 122.652344 98.203125 122.71875 98.160156 C 122.78125 98.113281 122.816406 98.046875 122.84375 97.984375 C 122.898438 97.863281 122.953125 97.738281 123 97.613281 C 123.085938 97.382812 123.160156 97.148438 123.214844 96.914062 C 122.988281 96.914062 122.761719 96.9375 122.539062 96.980469 Z M 124.332031 97.054688 C 124.027344 96.96875 123.710938 96.921875 123.394531 96.914062 C 123.46875 97.261719 123.574219 97.601562 123.714844 97.9375 C 123.765625 98.058594 123.898438 98.210938 124.046875 98.152344 C 124.109375 98.128906 124.140625 98.074219 124.164062 98.023438 C 124.292969 97.753906 124.351562 97.464844 124.339844 97.179688 C 124.339844 97.136719 124.335938 97.09375 124.332031 97.054688 Z M 128.042969 119.378906 C 127.953125 119.351562 127.859375 119.386719 127.777344 119.429688 C 127.289062 119.6875 127.027344 120.257812 126.695312 120.726562 C 126.257812 121.339844 125.65625 121.808594 124.984375 122.066406 C 124.902344 122.097656 124.808594 122.128906 124.757812 122.207031 C 124.695312 122.292969 124.699219 122.414062 124.707031 122.523438 C 124.777344 123.425781 124.925781 124.324219 124.863281 125.226562 C 124.820312 125.867188 124.652344 126.53125 124.316406 127.050781 C 124.308594 127.070312 124.296875 127.085938 124.285156 127.101562 C 124.289062 127.101562 124.296875 127.097656 124.300781 127.097656 C 124.296875 127.105469 124.292969 127.117188 124.285156 127.125 C 124.089844 127.582031 123.800781 127.996094 123.640625 128.464844 C 123.570312 128.671875 123.527344 128.910156 123.628906 129.105469 C 123.753906 129.339844 124.046875 129.425781 124.3125 129.4375 C 125.257812 129.492188 126.152344 128.910156 126.726562 128.152344 C 126.925781 127.890625 127.089844 127.609375 127.238281 127.316406 C 127.246094 127.316406 127.257812 127.316406 127.269531 127.316406 C 127.277344 127.273438 127.289062 127.230469 127.300781 127.1875 C 127.871094 124.796875 128.34375 122.367188 128.277344 119.90625 C 128.273438 119.695312 128.226562 119.433594 128.042969 119.378906 Z M 127.761719 102.214844 C 127.570312 102.085938 127.308594 101.964844 127.121094 102.101562 C 127 102.191406 126.964844 102.355469 126.972656 102.507812 C 126.992188 102.777344 127.125 103.027344 127.273438 103.257812 C 127.433594 103.511719 127.613281 103.75 127.8125 103.976562 C 127.875 104.046875 127.9375 104.117188 128.003906 104.183594 C 128.289062 103.8125 128.511719 103.398438 128.660156 102.957031 C 128.382812 102.683594 128.082031 102.4375 127.761719 102.214844 Z M 128.429688 101.054688 C 128.292969 101.046875 128.144531 101.097656 128.078125 101.214844 C 128.015625 101.324219 128.035156 101.457031 128.078125 101.574219 C 128.195312 101.90625 128.472656 102.269531 128.761719 102.574219 C 128.785156 102.46875 128.804688 102.367188 128.820312 102.261719 C 128.871094 101.886719 128.867188 101.507812 128.8125 101.136719 C 128.683594 101.089844 128.554688 101.0625 128.429688 101.054688 Z M 130.464844 110.894531 C 130.4375 111.332031 130.378906 111.765625 130.300781 112.191406 C 130.042969 113.617188 129.578125 114.996094 129.28125 116.414062 C 129.160156 116.992188 129.078125 117.640625 129.410156 118.128906 C 129.855469 118.792969 130.804688 118.824219 131.601562 118.792969 C 132.292969 118.761719 133.097656 118.792969 133.582031 119.234375 C 133.367188 118.484375 133.089844 117.746094 132.816406 117.03125 C 132.03125 114.984375 131.25 112.941406 130.464844 110.894531 Z M 133.285156 126.148438 C 132.703125 125.53125 131.804688 125.214844 130.964844 125.355469 C 130.121094 125.492188 129.371094 126.085938 129.015625 126.859375 C 129.027344 126.855469 129.039062 126.851562 129.050781 126.847656 C 129.308594 126.773438 129.582031 126.824219 129.847656 126.875 C 130.824219 127.070312 131.929688 127.253906 132.734375 126.667969 C 132.925781 126.527344 133.085938 126.351562 133.25 126.1875 C 133.273438 126.183594 133.292969 126.183594 133.316406 126.183594 C 133.304688 126.171875 133.296875 126.160156 133.285156 126.148438 Z M 141.84375 123.804688 C 143.757812 125.039062 143.429688 127.851562 141.5 128.957031 C 139.753906 129.953125 137.53125 129.734375 135.605469 129.933594 C 135.140625 129.980469 134.664062 130.035156 134.246094 130.25 C 133.667969 130.542969 133.273438 131.097656 132.761719 131.492188 C 132.234375 131.894531 131.210938 132.175781 130.832031 131.421875 C 130.644531 131.042969 130.699219 130.589844 130.820312 130.183594 C 131.335938 128.464844 132.917969 127.316406 134.675781 127.203125 C 135.792969 127.132812 138.269531 127.847656 139.074219 126.777344 C 139.1875 126.625 139.191406 126.378906 139.03125 126.273438 C 138.957031 126.226562 138.867188 126.21875 138.777344 126.210938 C 138.03125 126.164062 137.289062 126.132812 136.542969 126.113281 C 136.992188 125.597656 137.273438 124.9375 137.324219 124.253906 C 137.363281 123.734375 137.277344 123.214844 137.203125 122.695312 C 138.828125 122.683594 140.425781 122.886719 141.84375 123.804688 " fill-opacity="1" fill-rule="nonzero"/></g><path fill="#e2c8bd" d="M 128.460938 95.5625 C 128.398438 95.574219 128.34375 95.617188 128.292969 95.660156 C 127.601562 96.242188 126.90625 96.824219 126.214844 97.40625 C 126.066406 97.53125 126.089844 97.761719 126.253906 97.859375 C 126.609375 98.070312 126.941406 98.328125 127.230469 98.621094 C 127.363281 98.753906 127.585938 98.722656 127.671875 98.558594 C 128.089844 97.792969 128.429688 96.984375 128.6875 96.148438 C 128.722656 96.027344 128.761719 95.898438 128.730469 95.777344 C 128.703125 95.652344 128.589844 95.539062 128.460938 95.5625 Z M 117.710938 96.007812 C 117.671875 95.742188 117.667969 95.40625 117.957031 95.3125 C 118.113281 95.261719 118.285156 95.308594 118.40625 95.417969 C 118.996094 95.960938 119.503906 96.597656 119.902344 97.300781 C 119.976562 97.429688 119.933594 97.597656 119.804688 97.675781 C 119.378906 97.933594 118.988281 98.253906 118.648438 98.617188 C 118.496094 98.78125 118.226562 98.707031 118.175781 98.488281 C 117.988281 97.667969 117.835938 96.839844 117.710938 96.007812 " fill-opacity="1" fill-rule="nonzero"/><path fill="#ebe7e8" d="M 124.621094 98.722656 C 124.375 98.722656 124.175781 98.921875 124.175781 99.167969 C 124.175781 99.414062 124.375 99.617188 124.621094 99.617188 C 124.867188 99.617188 125.066406 99.414062 125.066406 99.167969 C 125.066406 98.921875 124.867188 98.722656 124.621094 98.722656 Z M 121.835938 99.167969 C 121.835938 99.414062 121.636719 99.617188 121.386719 99.617188 C 121.140625 99.617188 120.941406 99.414062 120.941406 99.167969 C 120.941406 98.921875 121.140625 98.722656 121.386719 98.722656 C 121.636719 98.722656 121.835938 98.921875 121.835938 99.167969 " fill-opacity="1" fill-rule="nonzero"/><g clip-path="url(#283f79d102)"><path fill="#3e393a" d="M 116.152344 102.484375 C 117.894531 101.992188 119.675781 101.914062 121.429688 102.386719 C 121.570312 102.425781 121.707031 102.238281 121.539062 102.183594 C 119.777344 101.617188 117.804688 101.621094 116.082031 102.332031 C 115.957031 102.382812 116.039062 102.515625 116.152344 102.484375 Z M 124.574219 102.382812 C 126.328125 101.90625 128.109375 102 129.847656 102.484375 C 129.953125 102.511719 130.0625 102.382812 129.933594 102.332031 C 128.210938 101.609375 126.238281 101.625 124.476562 102.1875 C 124.304688 102.242188 124.429688 102.425781 124.574219 102.382812 Z M 119.347656 100.226562 C 119.679688 100.207031 120.019531 100.0625 120.34375 100.179688 C 120.648438 100.292969 120.820312 100.578125 120.953125 100.855469 C 121.035156 101.03125 121.367188 100.898438 121.292969 100.707031 C 121.140625 100.332031 120.910156 99.976562 120.515625 99.832031 C 120.105469 99.683594 119.632812 99.785156 119.265625 99.996094 C 119.144531 100.0625 119.222656 100.238281 119.347656 100.226562 Z M 125.058594 100.824219 C 125.195312 100.535156 125.382812 100.222656 125.71875 100.148438 C 126.011719 100.082031 126.324219 100.207031 126.621094 100.226562 C 126.757812 100.238281 126.886719 100.066406 126.738281 99.976562 C 126.375 99.757812 125.859375 99.679688 125.460938 99.859375 C 125.085938 100.023438 124.863281 100.371094 124.710938 100.738281 C 124.628906 100.949219 124.980469 100.992188 125.058594 100.824219 Z M 124.832031 103.730469 C 124.933594 103.628906 124.757812 103.554688 124.671875 103.601562 C 124.03125 103.960938 123.683594 103.460938 123.332031 103.023438 L 123.632812 102.9375 C 124.132812 102.792969 124.027344 102.058594 123.507812 102.058594 L 122.5 102.058594 C 121.980469 102.058594 121.878906 102.792969 122.378906 102.9375 L 122.695312 103.027344 C 122.339844 103.472656 121.992188 103.949219 121.339844 103.597656 C 121.257812 103.554688 121.078125 103.636719 121.171875 103.738281 C 121.746094 104.339844 122.601562 103.859375 122.992188 103.246094 C 123.371094 103.875 124.246094 104.320312 124.832031 103.730469 Z M 114.496094 126.816406 C 114.121094 126.9375 113.855469 127.257812 113.761719 127.632812 C 113.730469 127.753906 113.9375 127.753906 113.96875 127.65625 C 114.078125 127.34375 114.308594 127.113281 114.589844 126.957031 C 114.699219 126.898438 114.585938 126.789062 114.496094 126.816406 Z M 115.683594 126.929688 C 115.234375 127.15625 114.453125 127.890625 114.996094 128.410156 C 115.03125 128.441406 115.128906 128.441406 115.117188 128.375 C 115.078125 128.058594 115.089844 127.789062 115.304688 127.53125 C 115.457031 127.347656 115.65625 127.207031 115.835938 127.050781 C 115.941406 126.960938 115.761719 126.890625 115.683594 126.929688 Z M 130.765625 126.003906 C 130.703125 125.964844 130.566406 126.007812 130.605469 126.101562 C 130.660156 126.226562 130.742188 126.335938 130.78125 126.46875 C 130.816406 126.59375 130.816406 126.726562 130.835938 126.855469 C 130.855469 126.992188 131.078125 126.960938 131.105469 126.84375 C 131.175781 126.558594 131.019531 126.160156 130.765625 126.003906 Z M 131.9375 125.785156 C 131.867188 125.742188 131.75 125.820312 131.832031 125.886719 C 131.988281 126.007812 132.09375 126.175781 132.132812 126.371094 C 132.164062 126.535156 132.105469 126.691406 132.117188 126.855469 C 132.128906 126.980469 132.316406 126.949219 132.367188 126.875 C 132.601562 126.511719 132.25 125.976562 131.9375 125.785156 Z M 124.921875 128.722656 C 124.800781 128.796875 124.703125 128.886719 124.621094 129.003906 C 124.558594 129.101562 124.484375 129.246094 124.503906 129.367188 C 124.515625 129.453125 124.652344 129.46875 124.703125 129.40625 C 124.769531 129.324219 124.808594 129.21875 124.863281 129.125 C 124.921875 129.027344 124.988281 128.929688 125.0625 128.839844 C 125.136719 128.746094 125.003906 128.675781 124.921875 128.722656 Z M 124.511719 128.144531 C 124.023438 128.207031 123.628906 128.597656 123.515625 129.070312 C 123.492188 129.164062 123.640625 129.164062 123.671875 129.09375 C 123.835938 128.695312 124.160156 128.4375 124.554688 128.289062 C 124.652344 128.253906 124.617188 128.128906 124.511719 128.144531 Z M 120.339844 129.046875 C 120.222656 129.359375 120.238281 129.71875 120.371094 130.027344 C 120.398438 130.085938 120.519531 130.070312 120.515625 130 C 120.496094 129.679688 120.5 129.367188 120.519531 129.046875 C 120.523438 128.953125 120.367188 128.980469 120.339844 129.046875 Z M 119.34375 128.765625 C 119.089844 129.097656 119.042969 129.632812 119.3125 129.96875 C 119.328125 129.988281 119.375 129.984375 119.375 129.953125 C 119.375 129.746094 119.339844 129.542969 119.363281 129.335938 C 119.386719 129.15625 119.429688 128.976562 119.476562 128.796875 C 119.496094 128.71875 119.378906 128.71875 119.34375 128.765625 Z M 128.007812 104.300781 C 128.207031 104.445312 128.402344 104.597656 128.589844 104.757812 C 128.703125 104.855469 128.960938 104.722656 128.828125 104.59375 C 128.617188 104.382812 128.394531 104.1875 128.160156 104.011719 C 128.277344 103.765625 128.371094 103.507812 128.433594 103.234375 C 128.46875 103.101562 128.222656 103.078125 128.179688 103.191406 C 128.097656 103.410156 128.003906 103.621094 127.898438 103.828125 C 127.558594 103.597656 127.195312 103.402344 126.808594 103.242188 C 126.15625 102.964844 125.351562 102.6875 124.628906 102.757812 C 124.566406 102.761719 124.527344 102.847656 124.601562 102.871094 C 124.933594 102.984375 125.292969 103.027344 125.632812 103.125 C 126.003906 103.230469 126.371094 103.367188 126.722656 103.53125 C 127.078125 103.695312 127.417969 103.890625 127.742188 104.109375 C 127.285156 104.878906 126.644531 105.519531 125.835938 105.953125 C 125.699219 106.027344 125.84375 106.183594 125.964844 106.132812 C 126.824219 105.746094 127.546875 105.105469 128.007812 104.300781 Z M 120.082031 106.375 C 119.183594 105.882812 118.582031 105.285156 118.058594 104.410156 C 118.027344 104.359375 117.945312 104.347656 117.886719 104.367188 C 118.3125 104.046875 118.769531 103.761719 119.253906 103.535156 C 119.949219 103.210938 120.679688 103.105469 121.398438 102.871094 C 121.464844 102.851562 121.464844 102.765625 121.390625 102.757812 C 120.644531 102.679688 119.785156 102.988281 119.113281 103.289062 C 118.390625 103.609375 117.742188 104.050781 117.179688 104.609375 C 117.058594 104.730469 117.289062 104.859375 117.394531 104.765625 C 117.539062 104.640625 117.683594 104.523438 117.835938 104.40625 C 117.828125 104.421875 117.824219 104.441406 117.828125 104.464844 C 118.085938 105.445312 118.980469 106.296875 119.957031 106.546875 C 120.054688 106.574219 120.21875 106.445312 120.082031 106.375 Z M 134.191406 122.632812 C 134.152344 122.496094 133.902344 122.503906 133.882812 122.652344 C 133.828125 123.125 133.824219 123.597656 133.726562 124.0625 C 133.660156 124.363281 133.464844 125.421875 133.066406 125.46875 C 133.027344 125.472656 132.992188 125.496094 132.972656 125.527344 C 132.964844 125.519531 132.960938 125.511719 132.953125 125.503906 C 132.347656 124.933594 131.273438 124.945312 130.535156 125.199219 C 129.882812 125.425781 129.164062 125.945312 128.953125 126.636719 C 128.933594 126.695312 129.035156 126.714844 129.066406 126.679688 C 129.5 126.203125 129.886719 125.769531 130.507812 125.535156 C 131.316406 125.238281 132 125.472656 132.785156 125.6875 C 132.832031 125.699219 132.90625 125.675781 132.949219 125.636719 C 132.960938 125.664062 132.984375 125.683594 133.027344 125.691406 C 133.585938 125.800781 133.84375 125.09375 133.996094 124.679688 C 134.230469 124.042969 134.378906 123.296875 134.191406 122.632812 Z M 129.039062 117.929688 C 129.371094 117.148438 129.703125 116.296875 129.472656 115.441406 C 129.449219 115.34375 129.269531 115.355469 129.28125 115.460938 C 129.382812 116.445312 129.003906 117.300781 128.621094 118.183594 C 128.253906 119.023438 127.972656 119.839844 128.042969 120.769531 C 128.089844 121.347656 128.195312 121.917969 128.1875 122.503906 C 128.179688 123.070312 128.105469 123.636719 127.988281 124.195312 C 127.757812 125.316406 127.34375 126.378906 126.964844 127.453125 C 126.898438 127.648438 127.21875 127.699219 127.285156 127.535156 C 127.683594 126.5 128.058594 125.4375 128.292969 124.347656 C 128.535156 123.21875 128.527344 122.152344 128.390625 121.015625 C 128.324219 120.441406 128.332031 119.898438 128.492188 119.34375 C 128.628906 118.855469 128.84375 118.394531 129.039062 117.929688 Z M 124.453125 127.089844 C 125.148438 125.679688 125.097656 123.964844 124.945312 122.4375 C 124.855469 121.558594 124.703125 120.683594 124.523438 119.816406 C 124.34375 118.957031 124.195312 118.027344 123.835938 117.21875 C 123.816406 117.171875 123.71875 117.183594 123.722656 117.238281 C 123.777344 118.097656 124.050781 118.953125 124.210938 119.800781 C 124.371094 120.652344 124.507812 121.507812 124.589844 122.371094 C 124.738281 123.960938 124.644531 125.511719 124.171875 127.042969 C 124.128906 127.191406 124.398438 127.199219 124.453125 127.089844 Z M 121.890625 117.839844 C 121.503906 119.414062 121.359375 121.050781 121.214844 122.664062 C 121.140625 123.46875 121.082031 124.277344 121.042969 125.085938 C 121 125.847656 120.933594 126.625 120.972656 127.386719 C 120.976562 127.511719 121.21875 127.496094 121.226562 127.378906 C 121.300781 126.574219 121.289062 125.757812 121.332031 124.953125 C 121.378906 124.144531 121.433594 123.335938 121.503906 122.53125 C 121.636719 120.964844 121.878906 119.410156 121.988281 117.84375 C 121.992188 117.796875 121.902344 117.796875 121.890625 117.839844 Z M 118.945312 128.023438 C 119.042969 128.164062 118.753906 128.296875 118.660156 128.183594 C 118.378906 127.84375 118.214844 127.460938 118.117188 127.054688 C 117.75 127.085938 117.367188 126.941406 117.054688 126.753906 C 116.804688 126.605469 116.460938 126.375 116.394531 126.074219 C 116.382812 126.035156 116.429688 126.011719 116.464844 126.027344 C 116.726562 126.15625 116.933594 126.382812 117.195312 126.519531 C 117.480469 126.667969 117.769531 126.714844 118.0625 126.804688 C 117.972656 126.316406 117.964844 125.808594 117.957031 125.3125 C 117.9375 124.023438 117.792969 122.699219 117.511719 121.441406 C 117.03125 119.3125 115.457031 117.101562 116.070312 114.847656 C 116.089844 114.769531 116.234375 114.78125 116.222656 114.871094 C 115.933594 117.195312 117.246094 119.152344 117.761719 121.339844 C 118.042969 122.515625 118.21875 123.777344 118.300781 124.984375 C 118.367188 126.03125 118.320312 127.121094 118.945312 128.023438 " fill-opacity="1" fill-rule="nonzero"/></g><g fill="#39343a" fill-opacity="1"><g transform="translate(165.856274, 119.372847)"><g/></g></g><g fill="#39343a" fill-opacity="1"><g transform="translate(173.201411, 119.372847)"><g><path d="M 1.8125 -17.546875 L 3.359375 -17.546875 L 3.359375 -1.296875 L 1.8125 -1.296875 L 1.8125 0 L 12.828125 0 L 12.828125 -4.078125 L 11.375 -4.078125 L 11.375 -1.515625 L 5.21875 -1.515625 L 5.21875 -17.546875 L 7.28125 -17.546875 L 7.28125 -18.828125 L 1.8125 -18.828125 Z M 1.8125 -17.546875 "/></g></g></g><g fill="#39343a" fill-opacity="1"><g transform="translate(186.278063, 119.372847)"><g><path d="M 11.484375 0 L 14.234375 0 L 14.234375 -1.296875 L 12.6875 -1.296875 L 12.6875 -10.984375 C 12.6875 -13.734375 10.984375 -15.109375 7.578125 -15.109375 C 6.546875 -15.109375 5.6875 -15.003906 5 -14.796875 C 4.3125 -14.597656 3.78125 -14.28125 3.40625 -13.84375 C 3.039062 -13.40625 2.773438 -12.9375 2.609375 -12.4375 C 2.453125 -11.9375 2.347656 -11.316406 2.296875 -10.578125 L 3.8125 -10.5 C 3.882812 -11.5625 4.164062 -12.34375 4.65625 -12.84375 C 5.144531 -13.34375 6.117188 -13.59375 7.578125 -13.59375 C 9.785156 -13.59375 10.890625 -12.722656 10.890625 -10.984375 L 10.890625 -8.40625 L 6.109375 -8.09375 C 4.378906 -7.976562 3.203125 -7.59375 2.578125 -6.9375 C 1.960938 -6.28125 1.65625 -5.210938 1.65625 -3.734375 C 1.65625 -2.378906 1.972656 -1.359375 2.609375 -0.671875 C 3.253906 0.015625 4.390625 0.359375 6.015625 0.359375 C 7.835938 0.359375 9.503906 -0.316406 11.015625 -1.671875 Z M 6.265625 -1.109375 C 5.210938 -1.109375 4.472656 -1.316406 4.046875 -1.734375 C 3.617188 -2.160156 3.40625 -2.800781 3.40625 -3.65625 C 3.40625 -4.832031 3.597656 -5.617188 3.984375 -6.015625 C 4.367188 -6.421875 5.113281 -6.660156 6.21875 -6.734375 L 10.890625 -7.015625 L 10.890625 -3.125 C 9.472656 -1.78125 7.929688 -1.109375 6.265625 -1.109375 Z M 6.265625 -1.109375 "/></g></g></g><g fill="#39343a" fill-opacity="1"><g transform="translate(202.062897, 119.372847)"><g><path d="M 1.03125 -18.0625 L 2.578125 -18.0625 L 2.578125 0 L 3.796875 0 L 4.15625 -1.3125 C 5.695312 -0.195312 7.285156 0.359375 8.921875 0.359375 C 9.867188 0.359375 10.675781 0.210938 11.34375 -0.078125 C 12.019531 -0.367188 12.546875 -0.738281 12.921875 -1.1875 C 13.296875 -1.632812 13.59375 -2.21875 13.8125 -2.9375 C 14.039062 -3.664062 14.1875 -4.359375 14.25 -5.015625 C 14.3125 -5.679688 14.34375 -6.46875 14.34375 -7.375 C 14.34375 -8.269531 14.304688 -9.050781 14.234375 -9.71875 C 14.171875 -10.394531 14.03125 -11.085938 13.8125 -11.796875 C 13.59375 -12.515625 13.289062 -13.097656 12.90625 -13.546875 C 12.519531 -14.003906 11.988281 -14.378906 11.3125 -14.671875 C 10.644531 -14.960938 9.847656 -15.109375 8.921875 -15.109375 C 7.460938 -15.109375 5.953125 -14.644531 4.390625 -13.71875 L 4.390625 -19.34375 L 1.03125 -19.34375 Z M 8.671875 -13.59375 C 9.234375 -13.59375 9.726562 -13.515625 10.15625 -13.359375 C 10.59375 -13.203125 10.945312 -12.96875 11.21875 -12.65625 C 11.5 -12.351562 11.726562 -12.015625 11.90625 -11.640625 C 12.082031 -11.273438 12.210938 -10.835938 12.296875 -10.328125 C 12.390625 -9.828125 12.453125 -9.351562 12.484375 -8.90625 C 12.515625 -8.46875 12.53125 -7.957031 12.53125 -7.375 C 12.53125 -6.582031 12.507812 -5.925781 12.46875 -5.40625 C 12.425781 -4.882812 12.328125 -4.328125 12.171875 -3.734375 C 12.015625 -3.148438 11.796875 -2.6875 11.515625 -2.34375 C 11.234375 -2 10.828125 -1.710938 10.296875 -1.484375 C 9.773438 -1.265625 9.144531 -1.15625 8.40625 -1.15625 C 7.007812 -1.15625 5.671875 -1.644531 4.390625 -2.625 L 4.390625 -12.25 C 5.773438 -13.144531 7.203125 -13.59375 8.671875 -13.59375 Z M 8.671875 -13.59375 "/></g></g></g><g fill="#39343a" fill-opacity="1"><g transform="translate(217.950896, 119.372847)"><g><path d="M 7.96875 0.359375 C 9.070312 0.359375 9.992188 0.234375 10.734375 -0.015625 C 11.484375 -0.273438 12.050781 -0.648438 12.4375 -1.140625 C 12.832031 -1.640625 13.113281 -2.148438 13.28125 -2.671875 C 13.457031 -3.191406 13.578125 -3.820312 13.640625 -4.5625 L 12.15625 -4.640625 C 12.050781 -3.503906 11.703125 -2.640625 11.109375 -2.046875 C 10.523438 -1.453125 9.460938 -1.15625 7.921875 -1.15625 C 6.210938 -1.15625 5.070312 -1.597656 4.5 -2.484375 C 3.925781 -3.367188 3.628906 -4.863281 3.609375 -6.96875 L 13.875 -6.96875 L 13.875 -7.375 C 13.875 -8.289062 13.835938 -9.078125 13.765625 -9.734375 C 13.703125 -10.398438 13.550781 -11.09375 13.3125 -11.8125 C 13.070312 -12.539062 12.738281 -13.125 12.3125 -13.5625 C 11.894531 -14.007812 11.3125 -14.378906 10.5625 -14.671875 C 9.8125 -14.960938 8.910156 -15.109375 7.859375 -15.109375 C 6.816406 -15.109375 5.914062 -14.960938 5.15625 -14.671875 C 4.40625 -14.378906 3.8125 -14.007812 3.375 -13.5625 C 2.945312 -13.125 2.613281 -12.539062 2.375 -11.8125 C 2.132812 -11.09375 1.976562 -10.398438 1.90625 -9.734375 C 1.84375 -9.078125 1.8125 -8.289062 1.8125 -7.375 C 1.8125 -4.675781 2.234375 -2.710938 3.078125 -1.484375 C 3.929688 -0.253906 5.5625 0.359375 7.96875 0.359375 Z M 7.84375 -13.59375 C 8.71875 -13.59375 9.441406 -13.460938 10.015625 -13.203125 C 10.597656 -12.953125 11.023438 -12.5625 11.296875 -12.03125 C 11.578125 -11.507812 11.765625 -10.972656 11.859375 -10.421875 C 11.960938 -9.867188 12.023438 -9.191406 12.046875 -8.390625 L 3.609375 -8.390625 C 3.628906 -9.160156 3.691406 -9.820312 3.796875 -10.375 C 3.910156 -10.925781 4.109375 -11.460938 4.390625 -11.984375 C 4.679688 -12.503906 5.113281 -12.898438 5.6875 -13.171875 C 6.257812 -13.453125 6.976562 -13.59375 7.84375 -13.59375 Z M 7.84375 -13.59375 "/></g></g></g><g fill="#39343a" fill-opacity="1"><g transform="translate(233.374635, 119.372847)"><g><path d="M 1.546875 -18.0625 L 3.09375 -18.0625 L 3.09375 -1.296875 L 1.546875 -1.296875 L 1.546875 0 L 6.453125 0 L 6.453125 -1.296875 L 4.90625 -1.296875 L 4.90625 -19.34375 L 1.546875 -19.34375 Z M 1.546875 -18.0625 "/></g></g></g><g fill="#39343a" fill-opacity="1"><g transform="translate(241.370223, 119.372847)"><g><path d="M 1.8125 -13.46875 L 3.359375 -13.46875 L 3.359375 -1.296875 L 1.8125 -1.296875 L 1.8125 0 L 6.703125 0 L 6.703125 -1.296875 L 5.15625 -1.296875 L 5.15625 -14.75 L 1.8125 -14.75 Z M 4.25 -17.328125 C 4.75 -17.328125 5.066406 -17.445312 5.203125 -17.6875 C 5.347656 -17.9375 5.421875 -18.273438 5.421875 -18.703125 C 5.421875 -18.992188 5.398438 -19.21875 5.359375 -19.375 C 5.328125 -19.539062 5.21875 -19.703125 5.03125 -19.859375 C 4.851562 -20.015625 4.59375 -20.09375 4.25 -20.09375 C 3.925781 -20.09375 3.675781 -20.015625 3.5 -19.859375 C 3.332031 -19.703125 3.226562 -19.539062 3.1875 -19.375 C 3.15625 -19.21875 3.140625 -18.992188 3.140625 -18.703125 C 3.140625 -18.429688 3.15625 -18.210938 3.1875 -18.046875 C 3.226562 -17.878906 3.332031 -17.71875 3.5 -17.5625 C 3.675781 -17.40625 3.925781 -17.328125 4.25 -17.328125 Z M 4.25 -17.328125 "/></g></g></g><g fill="#39343a" fill-opacity="1"><g transform="translate(249.623729, 119.372847)"><g><path d="M 1.8125 -13.46875 L 3.359375 -13.46875 L 3.359375 -1.296875 L 1.8125 -1.296875 L 1.8125 0 L 6.703125 0 L 6.703125 -1.296875 L 5.15625 -1.296875 L 5.15625 -11.6875 C 6.757812 -12.957031 8.4375 -13.59375 10.1875 -13.59375 C 11.164062 -13.59375 11.863281 -13.351562 12.28125 -12.875 C 12.707031 -12.394531 12.921875 -11.613281 12.921875 -10.53125 L 12.921875 -1.296875 L 11.375 -1.296875 L 11.375 0 L 16.28125 0 L 16.28125 -1.296875 L 14.734375 -1.296875 L 14.734375 -10.5 C 14.734375 -12.082031 14.398438 -13.242188 13.734375 -13.984375 C 13.078125 -14.734375 11.988281 -15.109375 10.46875 -15.109375 C 8.5625 -15.109375 6.738281 -14.441406 5 -13.109375 L 4.5625 -14.75 L 1.8125 -14.75 Z M 1.8125 -13.46875 "/></g></g></g><g fill="#39343a" fill-opacity="1"><g transform="translate(267.446143, 119.372847)"><g><path d="M 7.578125 -4.75 C 8.515625 -4.75 9.316406 -4.847656 9.984375 -5.046875 C 10.648438 -5.242188 11.164062 -5.492188 11.53125 -5.796875 C 11.90625 -6.097656 12.203125 -6.488281 12.421875 -6.96875 C 12.640625 -7.445312 12.773438 -7.90625 12.828125 -8.34375 C 12.890625 -8.78125 12.921875 -9.3125 12.921875 -9.9375 C 12.921875 -11.550781 12.644531 -12.734375 12.09375 -13.484375 L 13.828125 -15.21875 L 12.75 -16.296875 L 10.90625 -14.46875 C 10.050781 -14.894531 8.941406 -15.109375 7.578125 -15.109375 C 6.648438 -15.109375 5.851562 -15.007812 5.1875 -14.8125 C 4.53125 -14.625 4.007812 -14.378906 3.625 -14.078125 C 3.25 -13.773438 2.957031 -13.378906 2.75 -12.890625 C 2.550781 -12.410156 2.421875 -11.953125 2.359375 -11.515625 C 2.296875 -11.078125 2.265625 -10.550781 2.265625 -9.9375 C 2.265625 -7.9375 2.710938 -6.554688 3.609375 -5.796875 L 2.5 -4.75 C 1.75 -3.988281 1.375 -3.1875 1.375 -2.34375 C 1.375 -1.3125 1.84375 -0.597656 2.78125 -0.203125 C 1.789062 0.597656 1.296875 1.5625 1.296875 2.6875 C 1.296875 3.457031 1.4375 4.082031 1.71875 4.5625 C 2 5.039062 2.4375 5.394531 3.03125 5.625 C 3.625 5.863281 4.238281 6.019531 4.875 6.09375 C 5.507812 6.175781 6.328125 6.21875 7.328125 6.21875 C 8.148438 6.21875 8.8125 6.203125 9.3125 6.171875 C 9.8125 6.148438 10.390625 6.0625 11.046875 5.90625 C 11.710938 5.75 12.222656 5.53125 12.578125 5.25 C 12.941406 4.976562 13.257812 4.570312 13.53125 4.03125 C 13.800781 3.488281 13.9375 2.832031 13.9375 2.0625 C 13.9375 0.945312 13.601562 0.0976562 12.9375 -0.484375 C 12.269531 -1.078125 11.328125 -1.375 10.109375 -1.375 L 4.203125 -1.375 C 3.296875 -1.375 2.84375 -1.738281 2.84375 -2.46875 C 2.84375 -3.039062 3.066406 -3.539062 3.515625 -3.96875 L 4.75 -5.15625 C 5.519531 -4.882812 6.460938 -4.75 7.578125 -4.75 Z M 7.578125 -6.109375 C 6.117188 -6.109375 5.160156 -6.414062 4.703125 -7.03125 C 4.253906 -7.65625 4.03125 -8.617188 4.03125 -9.921875 C 4.03125 -11.234375 4.253906 -12.195312 4.703125 -12.8125 C 5.160156 -13.4375 6.117188 -13.75 7.578125 -13.75 C 9.054688 -13.75 10.023438 -13.4375 10.484375 -12.8125 C 10.941406 -12.195312 11.171875 -11.234375 11.171875 -9.921875 C 11.171875 -8.617188 10.941406 -7.65625 10.484375 -7.03125 C 10.023438 -6.414062 9.054688 -6.109375 7.578125 -6.109375 Z M 7.328125 4.84375 C 6.609375 4.84375 6.019531 4.820312 5.5625 4.78125 C 5.101562 4.738281 4.644531 4.644531 4.1875 4.5 C 3.738281 4.351562 3.40625 4.117188 3.1875 3.796875 C 2.96875 3.484375 2.859375 3.078125 2.859375 2.578125 C 2.859375 1.515625 3.253906 0.65625 4.046875 0 L 9.59375 0 C 11.363281 0 12.25 0.695312 12.25 2.09375 C 12.25 3.289062 11.882812 4.046875 11.15625 4.359375 C 10.425781 4.679688 9.148438 4.84375 7.328125 4.84375 Z M 7.328125 4.84375 "/></g></g></g></svg>