<svg xmlns="http://www.w3.org/2000/svg" xmlns:xlink="http://www.w3.org/1999/xlink" width="551" zoomAndPan="magnify" viewBox="0 0 413.25 221.999995" height="296" preserveAspectRatio="xMidYMid meet" version="1.0"><defs><g/><clipPath id="a49ebb8630"><path d="M 82.519531 115 L 99 115 L 99 131.875 L 82.519531 131.875 Z M 82.519531 115 " clip-rule="nonzero"/></clipPath><clipPath id="13fee8585d"><path d="M 93 93.695312 L 120.699219 93.695312 L 120.699219 122 L 93 122 Z M 93 93.695312 " clip-rule="nonzero"/></clipPath></defs><g clip-path="url(#a49ebb8630)"><path fill="#008037" d="M 98.144531 124.726562 L 97.277344 124.414062 C 97.339844 123.789062 97.308594 123.132812 97.214844 122.507812 L 98.050781 122.132812 C 98.578125 121.882812 98.792969 121.257812 98.546875 120.761719 L 98.050781 119.699219 C 97.804688 119.167969 97.1875 118.949219 96.691406 119.199219 L 95.855469 119.574219 C 95.453125 119.074219 94.988281 118.636719 94.464844 118.261719 L 94.773438 117.386719 C 94.957031 116.859375 94.679688 116.234375 94.15625 116.046875 L 93.070312 115.640625 C 92.546875 115.453125 91.925781 115.734375 91.742188 116.265625 L 91.433594 117.140625 C 90.8125 117.078125 90.164062 117.109375 89.546875 117.203125 L 89.144531 116.328125 C 88.894531 115.796875 88.277344 115.578125 87.78125 115.828125 L 86.730469 116.328125 C 86.203125 116.578125 85.988281 117.203125 86.234375 117.699219 L 86.605469 118.542969 C 86.113281 118.949219 85.679688 119.417969 85.308594 119.949219 L 84.441406 119.636719 C 83.914062 119.449219 83.296875 119.730469 83.109375 120.261719 L 82.710938 121.351562 C 82.617188 121.601562 82.617188 121.882812 82.738281 122.164062 C 82.863281 122.414062 83.050781 122.601562 83.328125 122.695312 L 84.195312 123.007812 C 84.132812 123.632812 84.164062 124.289062 84.253906 124.914062 L 83.421875 125.285156 C 82.894531 125.535156 82.679688 126.160156 82.925781 126.660156 L 83.421875 127.722656 C 83.667969 128.253906 84.285156 128.472656 84.78125 128.222656 L 85.617188 127.847656 C 86.019531 128.347656 86.484375 128.785156 87.007812 129.15625 L 86.699219 130.03125 C 86.605469 130.28125 86.605469 130.5625 86.730469 130.84375 C 86.855469 131.09375 87.039062 131.28125 87.316406 131.375 L 88.402344 131.78125 C 88.648438 131.875 88.925781 131.875 89.203125 131.75 C 89.453125 131.625 89.636719 131.4375 89.730469 131.15625 L 90.039062 130.28125 C 90.660156 130.34375 91.308594 130.3125 91.925781 130.21875 L 92.296875 131.0625 C 92.546875 131.59375 93.164062 131.8125 93.660156 131.5625 L 94.710938 131.0625 C 95.238281 130.8125 95.453125 130.1875 95.207031 129.6875 L 94.835938 128.847656 C 95.328125 128.441406 95.761719 127.972656 96.132812 127.441406 L 97 127.753906 C 97.246094 127.847656 97.558594 127.847656 97.804688 127.722656 C 98.050781 127.597656 98.238281 127.410156 98.332031 127.128906 L 98.734375 126.035156 C 98.949219 125.535156 98.671875 124.945312 98.144531 124.726562 Z M 92.453125 127.472656 C 91.894531 127.722656 91.339844 127.847656 90.75 127.847656 C 89.144531 127.847656 87.6875 126.910156 87.039062 125.441406 C 86.082031 123.382812 87.007812 120.917969 89.050781 119.949219 C 89.605469 119.699219 90.164062 119.574219 90.75 119.574219 C 92.359375 119.574219 93.8125 120.511719 94.464844 121.976562 C 95.390625 124.070312 94.496094 126.503906 92.453125 127.472656 Z M 92.453125 127.472656 " fill-opacity="1" fill-rule="nonzero"/></g><g clip-path="url(#13fee8585d)"><path fill="#008037" d="M 119.242188 109.335938 L 117.789062 108.804688 C 117.910156 107.742188 117.847656 106.648438 117.664062 105.585938 L 119.054688 104.933594 C 119.921875 104.527344 120.324219 103.496094 119.921875 102.589844 L 119.117188 100.8125 C 118.714844 99.9375 117.695312 99.53125 116.796875 99.9375 L 115.40625 100.59375 C 114.726562 99.75 113.921875 99 113.054688 98.40625 L 113.582031 96.941406 C 113.921875 96.035156 113.457031 95.003906 112.558594 94.691406 L 110.734375 94.003906 C 109.867188 93.695312 108.816406 94.160156 108.507812 95.035156 L 107.980469 96.503906 C 106.929688 96.378906 105.847656 96.441406 104.796875 96.628906 L 104.144531 95.222656 C 103.742188 94.347656 102.722656 93.941406 101.824219 94.347656 L 100.0625 95.160156 C 99.195312 95.566406 98.792969 96.597656 99.195312 97.503906 L 99.847656 98.90625 C 99.011719 99.59375 98.269531 100.40625 97.679688 101.28125 L 96.226562 100.75 C 95.359375 100.4375 94.308594 100.90625 94 101.777344 L 93.320312 103.621094 C 93.164062 104.058594 93.164062 104.527344 93.382812 104.964844 C 93.566406 105.402344 93.9375 105.710938 94.371094 105.867188 L 95.824219 106.398438 C 95.699219 107.460938 95.730469 108.554688 95.949219 109.613281 L 94.554688 110.269531 C 93.691406 110.675781 93.289062 111.707031 93.691406 112.613281 L 94.496094 114.390625 C 94.898438 115.265625 95.917969 115.671875 96.816406 115.265625 L 98.207031 114.609375 C 98.886719 115.453125 99.691406 116.203125 100.558594 116.796875 L 100.03125 118.261719 C 99.878906 118.699219 99.878906 119.167969 100.09375 119.605469 C 100.277344 120.042969 100.648438 120.355469 101.082031 120.511719 L 102.910156 121.195312 C 103.339844 121.351562 103.804688 121.351562 104.238281 121.136719 C 104.671875 120.949219 104.980469 120.574219 105.136719 120.136719 L 105.660156 118.667969 C 106.714844 118.792969 107.796875 118.761719 108.847656 118.542969 L 109.496094 119.949219 C 109.898438 120.824219 110.921875 121.226562 111.816406 120.824219 L 113.582031 120.011719 C 114.445312 119.605469 114.847656 118.574219 114.445312 117.667969 L 113.796875 116.265625 C 114.632812 115.578125 115.375 114.765625 115.960938 113.890625 L 117.417969 114.421875 C 117.847656 114.578125 118.3125 114.578125 118.746094 114.359375 C 119.179688 114.171875 119.488281 113.796875 119.644531 113.359375 L 120.324219 111.519531 C 120.601562 110.675781 120.136719 109.675781 119.242188 109.335938 Z M 109.683594 113.921875 C 108.785156 114.359375 107.796875 114.546875 106.804688 114.546875 C 104.113281 114.546875 101.671875 112.957031 100.558594 110.519531 C 98.949219 107.054688 100.464844 102.902344 103.898438 101.3125 C 104.796875 100.875 105.785156 100.6875 106.773438 100.6875 C 109.464844 100.6875 111.910156 102.277344 113.023438 104.714844 C 114.632812 108.179688 113.117188 112.332031 109.683594 113.921875 Z M 109.683594 113.921875 " fill-opacity="1" fill-rule="nonzero"/></g><g fill="#39343a" fill-opacity="1"><g transform="translate(125.944813, 120.409512)"><g><path d="M 16.390625 0 L 21.34375 0 L 21.34375 -1.296875 L 19.796875 -1.296875 L 19.796875 -17.578125 L 21.34375 -17.578125 L 21.34375 -18.859375 L 17.234375 -18.859375 L 11.390625 -3.671875 L 5.921875 -18.859375 L 1.8125 -18.859375 L 1.8125 -17.578125 L 3.359375 -17.578125 L 3.359375 -1.296875 L 1.8125 -1.296875 L 1.8125 0 L 6.765625 0 L 6.765625 -1.296875 L 5.21875 -1.296875 L 5.21875 -15.734375 L 10.4375 -1.453125 L 12.296875 -1.453125 L 17.9375 -15.953125 L 17.9375 -1.296875 L 16.390625 -1.296875 Z M 16.390625 0 "/></g></g></g><g fill="#39343a" fill-opacity="1"><g transform="translate(149.090963, 120.409512)"><g><path d="M 11.5 0 L 14.265625 0 L 14.265625 -1.296875 L 12.71875 -1.296875 L 12.71875 -11.015625 C 12.71875 -13.765625 11.007812 -15.140625 7.59375 -15.140625 C 6.5625 -15.140625 5.703125 -15.035156 5.015625 -14.828125 C 4.328125 -14.628906 3.796875 -14.304688 3.421875 -13.859375 C 3.054688 -13.421875 2.789062 -12.953125 2.625 -12.453125 C 2.457031 -11.953125 2.347656 -11.332031 2.296875 -10.59375 L 3.828125 -10.515625 C 3.890625 -11.585938 4.164062 -12.375 4.65625 -12.875 C 5.15625 -13.375 6.132812 -13.625 7.59375 -13.625 C 9.800781 -13.625 10.90625 -12.753906 10.90625 -11.015625 L 10.90625 -8.421875 L 6.125 -8.109375 C 4.382812 -7.992188 3.203125 -7.609375 2.578125 -6.953125 C 1.960938 -6.296875 1.65625 -5.226562 1.65625 -3.75 C 1.65625 -2.382812 1.976562 -1.359375 2.625 -0.671875 C 3.269531 0.015625 4.398438 0.359375 6.015625 0.359375 C 7.847656 0.359375 9.519531 -0.320312 11.03125 -1.6875 Z M 6.28125 -1.109375 C 5.226562 -1.109375 4.484375 -1.316406 4.046875 -1.734375 C 3.617188 -2.160156 3.40625 -2.804688 3.40625 -3.671875 C 3.40625 -4.835938 3.597656 -5.625 3.984375 -6.03125 C 4.378906 -6.4375 5.128906 -6.675781 6.234375 -6.75 L 10.90625 -7.03125 L 10.90625 -3.125 C 9.488281 -1.78125 7.945312 -1.109375 6.28125 -1.109375 Z M 6.28125 -1.109375 "/></g></g></g><g fill="#39343a" fill-opacity="1"><g transform="translate(164.900613, 120.409512)"><g><path d="M 1.8125 -13.484375 L 3.359375 -13.484375 L 3.359375 -1.296875 L 1.8125 -1.296875 L 1.8125 0 L 6.71875 0 L 6.71875 -1.296875 L 5.171875 -1.296875 L 5.171875 -11.703125 C 6.773438 -12.984375 8.453125 -13.625 10.203125 -13.625 C 11.191406 -13.625 11.894531 -13.378906 12.3125 -12.890625 C 12.738281 -12.410156 12.953125 -11.628906 12.953125 -10.546875 L 12.953125 -1.296875 L 11.390625 -1.296875 L 11.390625 0 L 16.3125 0 L 16.3125 -1.296875 L 14.75 -1.296875 L 14.75 -10.515625 C 14.75 -12.097656 14.414062 -13.265625 13.75 -14.015625 C 13.09375 -14.765625 12.007812 -15.140625 10.5 -15.140625 C 8.582031 -15.140625 6.753906 -14.46875 5.015625 -13.125 L 4.578125 -14.78125 L 1.8125 -14.78125 Z M 1.8125 -13.484375 "/></g></g></g><g fill="#39343a" fill-opacity="1"><g transform="translate(182.751046, 120.409512)"><g><path d="M 11.5 0 L 14.265625 0 L 14.265625 -1.296875 L 12.71875 -1.296875 L 12.71875 -11.015625 C 12.71875 -13.765625 11.007812 -15.140625 7.59375 -15.140625 C 6.5625 -15.140625 5.703125 -15.035156 5.015625 -14.828125 C 4.328125 -14.628906 3.796875 -14.304688 3.421875 -13.859375 C 3.054688 -13.421875 2.789062 -12.953125 2.625 -12.453125 C 2.457031 -11.953125 2.347656 -11.332031 2.296875 -10.59375 L 3.828125 -10.515625 C 3.890625 -11.585938 4.164062 -12.375 4.65625 -12.875 C 5.15625 -13.375 6.132812 -13.625 7.59375 -13.625 C 9.800781 -13.625 10.90625 -12.753906 10.90625 -11.015625 L 10.90625 -8.421875 L 6.125 -8.109375 C 4.382812 -7.992188 3.203125 -7.609375 2.578125 -6.953125 C 1.960938 -6.296875 1.65625 -5.226562 1.65625 -3.75 C 1.65625 -2.382812 1.976562 -1.359375 2.625 -0.671875 C 3.269531 0.015625 4.398438 0.359375 6.015625 0.359375 C 7.847656 0.359375 9.519531 -0.320312 11.03125 -1.6875 Z M 6.28125 -1.109375 C 5.226562 -1.109375 4.484375 -1.316406 4.046875 -1.734375 C 3.617188 -2.160156 3.40625 -2.804688 3.40625 -3.671875 C 3.40625 -4.835938 3.597656 -5.625 3.984375 -6.03125 C 4.378906 -6.4375 5.128906 -6.675781 6.234375 -6.75 L 10.90625 -7.03125 L 10.90625 -3.125 C 9.488281 -1.78125 7.945312 -1.109375 6.28125 -1.109375 Z M 6.28125 -1.109375 "/></g></g></g><g fill="#39343a" fill-opacity="1"><g transform="translate(198.560696, 120.409512)"><g><path d="M 7.59375 -4.75 C 8.53125 -4.75 9.332031 -4.847656 10 -5.046875 C 10.675781 -5.242188 11.195312 -5.492188 11.5625 -5.796875 C 11.9375 -6.097656 12.226562 -6.488281 12.4375 -6.96875 C 12.65625 -7.457031 12.796875 -7.921875 12.859375 -8.359375 C 12.921875 -8.796875 12.953125 -9.328125 12.953125 -9.953125 C 12.953125 -11.566406 12.675781 -12.753906 12.125 -13.515625 L 13.859375 -15.25 L 12.765625 -16.328125 L 10.9375 -14.5 C 10.070312 -14.925781 8.957031 -15.140625 7.59375 -15.140625 C 6.664062 -15.140625 5.867188 -15.039062 5.203125 -14.84375 C 4.546875 -14.644531 4.023438 -14.394531 3.640625 -14.09375 C 3.265625 -13.789062 2.972656 -13.398438 2.765625 -12.921875 C 2.554688 -12.441406 2.421875 -11.976562 2.359375 -11.53125 C 2.304688 -11.09375 2.28125 -10.566406 2.28125 -9.953125 C 2.28125 -7.953125 2.726562 -6.570312 3.625 -5.8125 L 2.5 -4.75 C 1.75 -4 1.375 -3.203125 1.375 -2.359375 C 1.375 -1.316406 1.847656 -0.597656 2.796875 -0.203125 C 1.796875 0.609375 1.296875 1.570312 1.296875 2.6875 C 1.296875 3.457031 1.4375 4.082031 1.71875 4.5625 C 2 5.050781 2.4375 5.410156 3.03125 5.640625 C 3.625 5.878906 4.238281 6.035156 4.875 6.109375 C 5.519531 6.191406 6.34375 6.234375 7.34375 6.234375 C 8.164062 6.234375 8.828125 6.21875 9.328125 6.1875 C 9.828125 6.164062 10.40625 6.078125 11.0625 5.921875 C 11.726562 5.765625 12.242188 5.546875 12.609375 5.265625 C 12.972656 4.992188 13.285156 4.585938 13.546875 4.046875 C 13.816406 3.503906 13.953125 2.84375 13.953125 2.0625 C 13.953125 0.945312 13.617188 0.0976562 12.953125 -0.484375 C 12.296875 -1.078125 11.351562 -1.375 10.125 -1.375 L 4.21875 -1.375 C 3.300781 -1.375 2.84375 -1.742188 2.84375 -2.484375 C 2.84375 -3.046875 3.066406 -3.546875 3.515625 -3.984375 L 4.75 -5.171875 C 5.53125 -4.890625 6.476562 -4.75 7.59375 -4.75 Z M 7.59375 -6.125 C 6.132812 -6.125 5.175781 -6.429688 4.71875 -7.046875 C 4.257812 -7.671875 4.03125 -8.632812 4.03125 -9.9375 C 4.03125 -11.25 4.257812 -12.21875 4.71875 -12.84375 C 5.175781 -13.46875 6.132812 -13.78125 7.59375 -13.78125 C 9.082031 -13.78125 10.050781 -13.46875 10.5 -12.84375 C 10.957031 -12.21875 11.1875 -11.25 11.1875 -9.9375 C 11.1875 -8.632812 10.957031 -7.671875 10.5 -7.046875 C 10.050781 -6.429688 9.082031 -6.125 7.59375 -6.125 Z M 7.34375 4.859375 C 6.613281 4.859375 6.019531 4.835938 5.5625 4.796875 C 5.113281 4.753906 4.660156 4.660156 4.203125 4.515625 C 3.742188 4.367188 3.40625 4.132812 3.1875 3.8125 C 2.976562 3.488281 2.875 3.078125 2.875 2.578125 C 2.875 1.515625 3.269531 0.65625 4.0625 0 L 9.609375 0 C 11.390625 0 12.28125 0.695312 12.28125 2.09375 C 12.28125 3.300781 11.910156 4.0625 11.171875 4.375 C 10.441406 4.695312 9.164062 4.859375 7.34375 4.859375 Z M 7.34375 4.859375 "/></g></g></g><g fill="#39343a" fill-opacity="1"><g transform="translate(213.543692, 120.409512)"><g><path d="M 7.984375 0.359375 C 9.085938 0.359375 10.015625 0.234375 10.765625 -0.015625 C 11.515625 -0.273438 12.082031 -0.648438 12.46875 -1.140625 C 12.851562 -1.640625 13.128906 -2.148438 13.296875 -2.671875 C 13.472656 -3.203125 13.597656 -3.835938 13.671875 -4.578125 L 12.171875 -4.65625 C 12.066406 -3.519531 11.722656 -2.648438 11.140625 -2.046875 C 10.554688 -1.453125 9.488281 -1.15625 7.9375 -1.15625 C 6.226562 -1.15625 5.082031 -1.597656 4.5 -2.484375 C 3.925781 -3.378906 3.632812 -4.878906 3.625 -6.984375 L 13.90625 -6.984375 L 13.90625 -7.390625 C 13.90625 -8.304688 13.867188 -9.09375 13.796875 -9.75 C 13.734375 -10.414062 13.578125 -11.109375 13.328125 -11.828125 C 13.085938 -12.554688 12.753906 -13.144531 12.328125 -13.59375 C 11.910156 -14.039062 11.328125 -14.410156 10.578125 -14.703125 C 9.828125 -14.992188 8.925781 -15.140625 7.875 -15.140625 C 6.832031 -15.140625 5.929688 -14.992188 5.171875 -14.703125 C 4.410156 -14.410156 3.8125 -14.039062 3.375 -13.59375 C 2.945312 -13.144531 2.613281 -12.554688 2.375 -11.828125 C 2.132812 -11.109375 1.976562 -10.414062 1.90625 -9.75 C 1.84375 -9.09375 1.8125 -8.304688 1.8125 -7.390625 C 1.8125 -4.679688 2.238281 -2.710938 3.09375 -1.484375 C 3.945312 -0.253906 5.578125 0.359375 7.984375 0.359375 Z M 7.859375 -13.625 C 8.734375 -13.625 9.457031 -13.492188 10.03125 -13.234375 C 10.613281 -12.972656 11.039062 -12.578125 11.3125 -12.046875 C 11.59375 -11.523438 11.785156 -10.988281 11.890625 -10.4375 C 11.992188 -9.882812 12.050781 -9.207031 12.0625 -8.40625 L 3.625 -8.40625 C 3.632812 -9.175781 3.695312 -9.835938 3.8125 -10.390625 C 3.925781 -10.941406 4.125 -11.476562 4.40625 -12 C 4.6875 -12.53125 5.113281 -12.929688 5.6875 -13.203125 C 6.269531 -13.484375 6.992188 -13.625 7.859375 -13.625 Z M 7.859375 -13.625 "/></g></g></g><g fill="#39343a" fill-opacity="1"><g transform="translate(228.991679, 120.409512)"><g/></g></g><g fill="#39343a" fill-opacity="1"><g transform="translate(236.354014, 120.409512)"><g><path d="M 16.390625 0 L 21.34375 0 L 21.34375 -1.296875 L 19.796875 -1.296875 L 19.796875 -17.578125 L 21.34375 -17.578125 L 21.34375 -18.859375 L 17.234375 -18.859375 L 11.390625 -3.671875 L 5.921875 -18.859375 L 1.8125 -18.859375 L 1.8125 -17.578125 L 3.359375 -17.578125 L 3.359375 -1.296875 L 1.8125 -1.296875 L 1.8125 0 L 6.765625 0 L 6.765625 -1.296875 L 5.21875 -1.296875 L 5.21875 -15.734375 L 10.4375 -1.453125 L 12.296875 -1.453125 L 17.9375 -15.953125 L 17.9375 -1.296875 L 16.390625 -1.296875 Z M 16.390625 0 "/></g></g></g><g fill="#39343a" fill-opacity="1"><g transform="translate(259.500165, 120.409512)"><g><path d="M 7.859375 -1.15625 C 7.023438 -1.15625 6.320312 -1.28125 5.75 -1.53125 C 5.175781 -1.78125 4.738281 -2.082031 4.4375 -2.4375 C 4.132812 -2.789062 3.894531 -3.273438 3.71875 -3.890625 C 3.550781 -4.503906 3.445312 -5.054688 3.40625 -5.546875 C 3.375 -6.035156 3.359375 -6.648438 3.359375 -7.390625 C 3.359375 -8.128906 3.375 -8.742188 3.40625 -9.234375 C 3.445312 -9.722656 3.550781 -10.273438 3.71875 -10.890625 C 3.894531 -11.503906 4.132812 -11.988281 4.4375 -12.34375 C 4.738281 -12.695312 5.175781 -13 5.75 -13.25 C 6.320312 -13.5 7.019531 -13.625 7.84375 -13.625 C 8.675781 -13.625 9.378906 -13.5 9.953125 -13.25 C 10.535156 -13 10.976562 -12.695312 11.28125 -12.34375 C 11.582031 -11.988281 11.816406 -11.503906 11.984375 -10.890625 C 12.160156 -10.273438 12.265625 -9.722656 12.296875 -9.234375 C 12.335938 -8.742188 12.359375 -8.128906 12.359375 -7.390625 C 12.359375 -6.648438 12.335938 -6.035156 12.296875 -5.546875 C 12.265625 -5.054688 12.160156 -4.503906 11.984375 -3.890625 C 11.816406 -3.273438 11.582031 -2.789062 11.28125 -2.4375 C 10.976562 -2.082031 10.535156 -1.78125 9.953125 -1.53125 C 9.378906 -1.28125 8.679688 -1.15625 7.859375 -1.15625 Z M 7.859375 0.359375 C 8.648438 0.359375 9.359375 0.28125 9.984375 0.125 C 10.617188 -0.03125 11.15625 -0.234375 11.59375 -0.484375 C 12.03125 -0.734375 12.40625 -1.054688 12.71875 -1.453125 C 13.039062 -1.847656 13.289062 -2.25 13.46875 -2.65625 C 13.65625 -3.070312 13.800781 -3.5625 13.90625 -4.125 C 14.007812 -4.6875 14.078125 -5.210938 14.109375 -5.703125 C 14.140625 -6.191406 14.15625 -6.753906 14.15625 -7.390625 C 14.15625 -8.023438 14.140625 -8.585938 14.109375 -9.078125 C 14.078125 -9.578125 14.007812 -10.101562 13.90625 -10.65625 C 13.800781 -11.21875 13.65625 -11.703125 13.46875 -12.109375 C 13.289062 -12.523438 13.039062 -12.929688 12.71875 -13.328125 C 12.40625 -13.734375 12.03125 -14.054688 11.59375 -14.296875 C 11.15625 -14.546875 10.617188 -14.75 9.984375 -14.90625 C 9.359375 -15.0625 8.648438 -15.140625 7.859375 -15.140625 C 7.066406 -15.140625 6.351562 -15.0625 5.71875 -14.90625 C 5.09375 -14.75 4.5625 -14.546875 4.125 -14.296875 C 3.6875 -14.054688 3.304688 -13.734375 2.984375 -13.328125 C 2.660156 -12.929688 2.410156 -12.523438 2.234375 -12.109375 C 2.054688 -11.703125 1.914062 -11.21875 1.8125 -10.65625 C 1.707031 -10.101562 1.632812 -9.578125 1.59375 -9.078125 C 1.5625 -8.585938 1.546875 -8.023438 1.546875 -7.390625 C 1.546875 -6.753906 1.5625 -6.191406 1.59375 -5.703125 C 1.632812 -5.210938 1.707031 -4.6875 1.8125 -4.125 C 1.914062 -3.5625 2.054688 -3.070312 2.234375 -2.65625 C 2.410156 -2.25 2.660156 -1.847656 2.984375 -1.453125 C 3.304688 -1.054688 3.6875 -0.734375 4.125 -0.484375 C 4.5625 -0.234375 5.09375 -0.03125 5.71875 0.125 C 6.351562 0.28125 7.066406 0.359375 7.859375 0.359375 Z M 7.859375 0.359375 "/></g></g></g><g fill="#39343a" fill-opacity="1"><g transform="translate(275.206487, 120.409512)"><g><path d="M 12.125 0 L 14.890625 0 L 14.890625 -1.296875 L 13.328125 -1.296875 L 13.328125 -19.390625 L 9.96875 -19.390625 L 9.96875 -18.09375 L 11.53125 -18.09375 L 11.53125 -14.21875 C 10.039062 -14.832031 8.609375 -15.140625 7.234375 -15.140625 C 6.253906 -15.140625 5.40625 -14.992188 4.6875 -14.703125 C 3.976562 -14.410156 3.421875 -14.039062 3.015625 -13.59375 C 2.617188 -13.144531 2.304688 -12.554688 2.078125 -11.828125 C 1.847656 -11.109375 1.703125 -10.414062 1.640625 -9.75 C 1.578125 -9.09375 1.546875 -8.304688 1.546875 -7.390625 C 1.546875 -6.472656 1.578125 -5.679688 1.640625 -5.015625 C 1.703125 -4.359375 1.84375 -3.664062 2.0625 -2.9375 C 2.289062 -2.21875 2.597656 -1.632812 2.984375 -1.1875 C 3.367188 -0.738281 3.910156 -0.367188 4.609375 -0.078125 C 5.304688 0.210938 6.140625 0.359375 7.109375 0.359375 C 8.773438 0.359375 10.332031 -0.273438 11.78125 -1.546875 Z M 7.421875 -1.15625 C 5.816406 -1.15625 4.738281 -1.679688 4.1875 -2.734375 C 3.632812 -3.785156 3.359375 -5.335938 3.359375 -7.390625 C 3.359375 -8.367188 3.414062 -9.203125 3.53125 -9.890625 C 3.644531 -10.585938 3.84375 -11.234375 4.125 -11.828125 C 4.40625 -12.421875 4.828125 -12.867188 5.390625 -13.171875 C 5.953125 -13.472656 6.65625 -13.625 7.5 -13.625 C 8.925781 -13.625 10.269531 -13.328125 11.53125 -12.734375 L 11.53125 -2.890625 C 10.269531 -1.734375 8.898438 -1.15625 7.421875 -1.15625 Z M 7.421875 -1.15625 "/></g></g></g><g fill="#39343a" fill-opacity="1"><g transform="translate(291.636124, 120.409512)"><g><path d="M 7.984375 0.359375 C 9.085938 0.359375 10.015625 0.234375 10.765625 -0.015625 C 11.515625 -0.273438 12.082031 -0.648438 12.46875 -1.140625 C 12.851562 -1.640625 13.128906 -2.148438 13.296875 -2.671875 C 13.472656 -3.203125 13.597656 -3.835938 13.671875 -4.578125 L 12.171875 -4.65625 C 12.066406 -3.519531 11.722656 -2.648438 11.140625 -2.046875 C 10.554688 -1.453125 9.488281 -1.15625 7.9375 -1.15625 C 6.226562 -1.15625 5.082031 -1.597656 4.5 -2.484375 C 3.925781 -3.378906 3.632812 -4.878906 3.625 -6.984375 L 13.90625 -6.984375 L 13.90625 -7.390625 C 13.90625 -8.304688 13.867188 -9.09375 13.796875 -9.75 C 13.734375 -10.414062 13.578125 -11.109375 13.328125 -11.828125 C 13.085938 -12.554688 12.753906 -13.144531 12.328125 -13.59375 C 11.910156 -14.039062 11.328125 -14.410156 10.578125 -14.703125 C 9.828125 -14.992188 8.925781 -15.140625 7.875 -15.140625 C 6.832031 -15.140625 5.929688 -14.992188 5.171875 -14.703125 C 4.410156 -14.410156 3.8125 -14.039062 3.375 -13.59375 C 2.945312 -13.144531 2.613281 -12.554688 2.375 -11.828125 C 2.132812 -11.109375 1.976562 -10.414062 1.90625 -9.75 C 1.84375 -9.09375 1.8125 -8.304688 1.8125 -7.390625 C 1.8125 -4.679688 2.238281 -2.710938 3.09375 -1.484375 C 3.945312 -0.253906 5.578125 0.359375 7.984375 0.359375 Z M 7.859375 -13.625 C 8.734375 -13.625 9.457031 -13.492188 10.03125 -13.234375 C 10.613281 -12.972656 11.039062 -12.578125 11.3125 -12.046875 C 11.59375 -11.523438 11.785156 -10.988281 11.890625 -10.4375 C 11.992188 -9.882812 12.050781 -9.207031 12.0625 -8.40625 L 3.625 -8.40625 C 3.632812 -9.175781 3.695312 -9.835938 3.8125 -10.390625 C 3.925781 -10.941406 4.125 -11.476562 4.40625 -12 C 4.6875 -12.53125 5.113281 -12.929688 5.6875 -13.203125 C 6.269531 -13.484375 6.992188 -13.625 7.859375 -13.625 Z M 7.859375 -13.625 "/></g></g></g><g fill="#39343a" fill-opacity="1"><g transform="translate(307.084121, 120.409512)"><g><path d="M 1.546875 -18.09375 L 3.09375 -18.09375 L 3.09375 -1.296875 L 1.546875 -1.296875 L 1.546875 0 L 6.46875 0 L 6.46875 -1.296875 L 4.90625 -1.296875 L 4.90625 -19.390625 L 1.546875 -19.390625 Z M 1.546875 -18.09375 "/></g></g></g><g fill="#39343a" fill-opacity="1"><g transform="translate(315.092289, 120.409512)"><g><path d="M 10.984375 -14.78125 L 11.015625 -13.28125 C 10.222656 -14.519531 8.800781 -15.140625 6.75 -15.140625 C 5.144531 -15.140625 3.929688 -14.765625 3.109375 -14.015625 C 2.296875 -13.265625 1.890625 -12.28125 1.890625 -11.0625 C 1.890625 -9.769531 2.234375 -8.832031 2.921875 -8.25 C 3.609375 -7.675781 4.753906 -7.179688 6.359375 -6.765625 L 8.375 -6.234375 C 9.375 -5.972656 10.070312 -5.648438 10.46875 -5.265625 C 10.863281 -4.890625 11.0625 -4.390625 11.0625 -3.765625 C 11.0625 -2.023438 9.890625 -1.15625 7.546875 -1.15625 C 4.890625 -1.15625 3.414062 -2.507812 3.125 -5.21875 L 1.9375 -5.21875 L 1.9375 0 L 3.25 0 L 3.203125 -1.90625 C 4.097656 -0.394531 5.625 0.359375 7.78125 0.359375 C 11.175781 0.359375 12.875 -1.015625 12.875 -3.765625 C 12.875 -4.992188 12.53125 -5.894531 11.84375 -6.46875 C 11.164062 -7.050781 10.035156 -7.554688 8.453125 -7.984375 L 6.4375 -8.53125 C 5.414062 -8.789062 4.703125 -9.101562 4.296875 -9.46875 C 3.898438 -9.84375 3.703125 -10.382812 3.703125 -11.09375 C 3.703125 -11.84375 3.945312 -12.453125 4.4375 -12.921875 C 4.925781 -13.390625 5.695312 -13.625 6.75 -13.625 C 7.519531 -13.625 8.132812 -13.570312 8.59375 -13.46875 C 9.0625 -13.375 9.484375 -13.1875 9.859375 -12.90625 C 10.242188 -12.625 10.53125 -12.210938 10.71875 -11.671875 C 10.914062 -11.140625 11.046875 -10.4375 11.109375 -9.5625 L 12.296875 -9.5625 L 12.296875 -14.78125 Z M 10.984375 -14.78125 "/></g></g></g></svg>