<svg xmlns="http://www.w3.org/2000/svg" xmlns:xlink="http://www.w3.org/1999/xlink" width="551" zoomAndPan="magnify" viewBox="0 0 413.25 221.249992" height="295" preserveAspectRatio="xMidYMid meet" version="1.0"><defs><g/><clipPath id="e83d7cc1b6"><path d="M 96.183594 101 L 116 101 L 116 121 L 96.183594 121 Z M 96.183594 101 " clip-rule="nonzero"/></clipPath><clipPath id="dc5431835e"><path d="M 135 100 L 152.992188 100 L 152.992188 122 L 135 122 Z M 135 100 " clip-rule="nonzero"/></clipPath><clipPath id="76d1b7f9a0"><path d="M 105 105 L 144 105 L 144 138.808594 L 105 138.808594 Z M 105 105 " clip-rule="nonzero"/></clipPath></defs><path fill="#3e393a" d="M 118.640625 96.402344 C 118.640625 96.402344 118.683594 96.445312 118.683594 96.445312 C 120.195312 97.953125 122.28125 98.886719 124.585938 98.886719 C 126.894531 98.886719 128.980469 97.953125 130.488281 96.445312 C 130.488281 96.445312 130.535156 96.402344 130.535156 96.402344 C 130.535156 96.402344 130.578125 96.355469 130.578125 96.355469 C 132.089844 94.847656 133.019531 92.761719 133.019531 90.453125 C 133.019531 88.144531 132.089844 86.0625 130.578125 84.550781 C 130.578125 84.550781 130.535156 84.507812 130.535156 84.507812 C 130.535156 84.507812 130.488281 84.460938 130.488281 84.460938 C 128.980469 82.953125 126.894531 82.023438 124.585938 82.023438 C 122.28125 82.023438 120.195312 82.953125 118.683594 84.460938 C 118.683594 84.460938 118.640625 84.507812 118.640625 84.507812 C 118.640625 84.507812 118.597656 84.550781 118.597656 84.550781 C 117.085938 86.0625 116.15625 88.144531 116.15625 90.453125 C 116.15625 92.761719 117.085938 94.847656 118.597656 96.355469 C 118.597656 96.355469 118.597656 96.402344 118.640625 96.402344 Z M 118.816406 89.566406 L 117.976562 89.566406 C 118.152344 88.414062 118.597656 87.304688 119.261719 86.414062 L 119.839844 86.992188 C 120.015625 87.171875 120.238281 87.257812 120.460938 87.257812 C 120.683594 87.257812 120.902344 87.171875 121.082031 86.992188 C 121.4375 86.636719 121.4375 86.105469 121.082031 85.75 L 120.503906 85.171875 C 121.390625 84.507812 122.457031 84.019531 123.65625 83.886719 L 123.65625 84.683594 C 123.65625 85.171875 124.054688 85.574219 124.542969 85.574219 C 125.03125 85.574219 125.429688 85.171875 125.429688 84.683594 L 125.429688 83.839844 C 126.585938 84.019531 127.695312 84.460938 128.582031 85.128906 L 128.003906 85.707031 C 127.648438 86.0625 127.648438 86.59375 128.003906 86.949219 C 128.183594 87.125 128.402344 87.214844 128.625 87.214844 C 128.847656 87.214844 129.070312 87.125 129.246094 86.949219 L 129.824219 86.371094 C 130.488281 87.257812 130.976562 88.324219 131.113281 89.523438 L 130.355469 89.523438 C 129.867188 89.523438 129.46875 89.921875 129.46875 90.410156 C 129.46875 90.898438 129.867188 91.296875 130.355469 91.296875 L 131.199219 91.296875 C 131.023438 92.453125 130.578125 93.5625 129.914062 94.449219 L 129.335938 93.871094 C 128.980469 93.515625 128.449219 93.515625 128.09375 93.871094 C 127.738281 94.226562 127.738281 94.757812 128.09375 95.113281 L 128.671875 95.691406 C 127.78125 96.355469 126.71875 96.84375 125.519531 96.976562 L 125.519531 96.222656 C 125.519531 95.734375 125.121094 95.335938 124.632812 95.335938 C 124.144531 95.335938 123.746094 95.734375 123.746094 96.222656 L 123.746094 97.066406 C 122.589844 96.890625 121.480469 96.445312 120.59375 95.78125 L 121.171875 95.203125 C 121.523438 94.847656 121.523438 94.316406 121.171875 93.960938 C 120.816406 93.605469 120.28125 93.605469 119.925781 93.960938 L 119.351562 94.539062 C 118.683594 93.648438 118.195312 92.585938 118.0625 91.386719 L 118.816406 91.386719 C 119.304688 91.386719 119.707031 90.988281 119.707031 90.5 C 119.707031 90.011719 119.304688 89.566406 118.816406 89.566406 Z M 118.816406 89.566406 " fill-opacity="1" fill-rule="nonzero"/><path fill="#3e393a" d="M 122.367188 91.34375 L 124.585938 91.34375 C 125.074219 91.34375 125.476562 90.941406 125.476562 90.453125 L 125.476562 87.792969 C 125.476562 87.304688 125.074219 86.902344 124.585938 86.902344 C 124.097656 86.902344 123.699219 87.304688 123.699219 87.792969 L 123.699219 89.566406 L 122.367188 89.566406 C 121.878906 89.566406 121.480469 89.964844 121.480469 90.453125 C 121.480469 90.941406 121.878906 91.34375 122.367188 91.34375 Z M 122.367188 91.34375 " fill-opacity="1" fill-rule="nonzero"/><g clip-path="url(#e83d7cc1b6)"><path fill="#3e393a" d="M 97.425781 113.488281 C 97.605469 114.019531 97.824219 114.554688 98.09375 115.085938 C 97.824219 115.839844 97.960938 116.726562 98.582031 117.304688 L 99.558594 118.28125 C 99.957031 118.679688 100.488281 118.902344 101.066406 118.902344 C 101.332031 118.902344 101.554688 118.859375 101.820312 118.769531 C 102.308594 119.035156 102.839844 119.257812 103.417969 119.433594 C 103.773438 120.144531 104.484375 120.675781 105.328125 120.675781 L 106.703125 120.675781 C 107.546875 120.675781 108.300781 120.1875 108.609375 119.433594 C 109.144531 119.257812 109.675781 119.035156 110.207031 118.769531 C 110.429688 118.859375 110.695312 118.902344 110.960938 118.902344 C 111.539062 118.902344 112.070312 118.679688 112.472656 118.28125 L 113.449219 117.304688 C 114.070312 116.683594 114.203125 115.839844 113.9375 115.085938 C 114.203125 114.597656 114.425781 114.066406 114.601562 113.488281 C 115.3125 113.132812 115.84375 112.421875 115.84375 111.578125 L 115.84375 110.203125 C 115.84375 109.359375 115.355469 108.605469 114.601562 108.296875 C 114.425781 107.761719 114.203125 107.230469 113.9375 106.699219 C 114.023438 106.476562 114.070312 106.210938 114.070312 105.941406 C 114.070312 105.367188 113.847656 104.832031 113.449219 104.433594 L 112.472656 103.457031 C 112.070312 103.058594 111.539062 102.835938 110.960938 102.835938 C 110.695312 102.835938 110.472656 102.882812 110.207031 102.96875 C 109.71875 102.703125 109.1875 102.480469 108.609375 102.304688 C 108.253906 101.59375 107.546875 101.0625 106.703125 101.0625 L 105.328125 101.0625 C 104.484375 101.0625 103.730469 101.550781 103.417969 102.304688 C 102.886719 102.480469 102.351562 102.703125 101.820312 102.96875 C 101.507812 102.925781 101.289062 102.882812 101.019531 102.882812 C 100.445312 102.882812 99.910156 103.101562 99.511719 103.503906 L 98.535156 104.480469 C 98.179688 104.832031 97.960938 105.367188 97.960938 105.941406 C 97.960938 106.210938 98.003906 106.429688 98.09375 106.699219 C 97.824219 107.1875 97.605469 107.71875 97.425781 108.296875 C 96.671875 108.605469 96.183594 109.316406 96.183594 110.203125 L 96.183594 111.578125 C 96.183594 112.421875 96.671875 113.132812 97.425781 113.488281 Z M 97.960938 110.203125 C 97.960938 110.027344 98.09375 109.847656 98.3125 109.847656 L 98.890625 109.847656 C 99.070312 108.652344 99.558594 107.539062 100.222656 106.609375 L 99.824219 106.210938 C 99.691406 106.078125 99.691406 105.855469 99.824219 105.722656 L 100.800781 104.746094 C 100.84375 104.699219 100.933594 104.65625 101.019531 104.65625 C 101.109375 104.65625 101.199219 104.699219 101.242188 104.746094 L 101.644531 105.144531 C 102.574219 104.433594 103.683594 103.992188 104.882812 103.8125 L 104.882812 103.234375 C 104.882812 103.058594 105.015625 102.882812 105.238281 102.882812 L 106.613281 102.882812 C 106.789062 102.882812 106.96875 103.015625 106.96875 103.234375 L 106.96875 103.8125 C 108.167969 103.992188 109.277344 104.480469 110.207031 105.144531 L 110.609375 104.746094 C 110.652344 104.699219 110.742188 104.65625 110.828125 104.65625 C 110.917969 104.65625 111.007812 104.699219 111.050781 104.746094 L 112.027344 105.722656 C 112.160156 105.855469 112.160156 106.078125 112.027344 106.210938 L 111.628906 106.609375 C 112.339844 107.539062 112.78125 108.652344 112.960938 109.847656 L 113.535156 109.847656 C 113.714844 109.847656 113.890625 109.980469 113.890625 110.203125 L 113.890625 111.578125 C 113.890625 111.757812 113.757812 111.933594 113.535156 111.933594 L 112.960938 111.933594 C 112.78125 113.132812 112.292969 114.242188 111.628906 115.175781 L 112.027344 115.574219 C 112.160156 115.707031 112.160156 115.929688 112.027344 116.0625 L 111.050781 117.039062 C 111.050781 117.082031 110.960938 117.082031 110.875 117.082031 C 110.785156 117.082031 110.695312 117.039062 110.652344 116.992188 L 110.253906 116.59375 C 109.320312 117.304688 108.210938 117.75 107.011719 117.925781 L 107.011719 118.503906 C 107.011719 118.679688 106.878906 118.859375 106.65625 118.859375 L 105.28125 118.859375 C 105.105469 118.859375 104.925781 118.726562 104.925781 118.503906 L 104.925781 117.925781 C 103.730469 117.75 102.617188 117.261719 101.6875 116.59375 L 101.289062 116.992188 C 101.199219 117.082031 101.109375 117.082031 101.019531 117.082031 C 100.933594 117.082031 100.84375 117.039062 100.800781 116.992188 L 99.824219 116.019531 C 99.691406 115.882812 99.691406 115.664062 99.824219 115.53125 L 100.222656 115.128906 C 99.511719 114.199219 99.070312 113.089844 98.890625 111.890625 L 98.3125 111.890625 C 98.09375 111.890625 97.960938 111.757812 97.960938 111.535156 Z M 97.960938 110.203125 " fill-opacity="1" fill-rule="nonzero"/></g><path fill="#3e393a" d="M 105.949219 116.195312 C 108.875 116.195312 111.273438 113.796875 111.273438 110.871094 C 111.273438 107.941406 108.875 105.542969 105.949219 105.542969 C 103.019531 105.542969 100.621094 107.941406 100.621094 110.871094 C 100.621094 113.796875 103.019531 116.195312 105.949219 116.195312 Z M 105.949219 107.320312 C 107.898438 107.320312 109.5 108.917969 109.5 110.871094 C 109.5 112.820312 107.898438 114.417969 105.949219 114.417969 C 103.996094 114.417969 102.398438 112.820312 102.398438 110.871094 C 102.398438 108.917969 103.996094 107.320312 105.949219 107.320312 Z M 105.949219 107.320312 " fill-opacity="1" fill-rule="nonzero"/><path fill="#3e393a" d="M 141.941406 98.886719 L 144.027344 98.886719 C 141.808594 95.203125 138.613281 92.183594 134.75 90.230469 C 134.75 90.320312 134.75 90.367188 134.75 90.453125 C 134.75 91.03125 134.707031 91.609375 134.617188 92.140625 C 137.589844 93.78125 140.121094 96.089844 141.941406 98.886719 Z M 141.941406 98.886719 " fill-opacity="1" fill-rule="nonzero"/><g clip-path="url(#dc5431835e)"><path fill="#3e393a" d="M 150.328125 102.4375 L 148.507812 102.4375 C 148.285156 101.417969 147.398438 100.660156 146.335938 100.660156 L 141.894531 100.660156 C 140.832031 100.660156 139.941406 101.417969 139.722656 102.4375 L 137.902344 102.4375 C 136.4375 102.4375 135.238281 103.636719 135.238281 105.101562 L 135.238281 118.414062 C 135.238281 119.878906 136.4375 121.078125 137.902344 121.078125 L 150.328125 121.078125 C 151.792969 121.078125 152.992188 119.878906 152.992188 118.414062 L 152.992188 105.101562 C 152.992188 103.636719 151.792969 102.4375 150.328125 102.4375 Z M 141.453125 102.882812 C 141.453125 102.613281 141.628906 102.4375 141.894531 102.4375 L 146.335938 102.4375 C 146.601562 102.4375 146.777344 102.613281 146.777344 102.882812 L 146.777344 103.769531 C 146.777344 104.035156 146.601562 104.210938 146.335938 104.210938 L 141.894531 104.210938 C 141.628906 104.210938 141.453125 104.035156 141.453125 103.769531 Z M 151.214844 118.414062 C 151.214844 118.902344 150.816406 119.300781 150.328125 119.300781 L 137.902344 119.300781 C 137.414062 119.300781 137.015625 118.902344 137.015625 118.414062 L 137.015625 105.101562 C 137.015625 104.613281 137.414062 104.210938 137.902344 104.210938 L 139.722656 104.210938 C 139.941406 105.234375 140.832031 105.988281 141.894531 105.988281 L 146.335938 105.988281 C 147.398438 105.988281 148.285156 105.234375 148.507812 104.210938 L 150.328125 104.210938 C 150.816406 104.210938 151.214844 104.613281 151.214844 105.101562 Z M 151.214844 118.414062 " fill-opacity="1" fill-rule="nonzero"/></g><path fill="#3e393a" d="M 147.664062 107.761719 L 140.566406 107.761719 C 140.078125 107.761719 139.675781 108.164062 139.675781 108.652344 C 139.675781 109.136719 140.078125 109.539062 140.566406 109.539062 L 147.664062 109.539062 C 148.152344 109.539062 148.554688 109.136719 148.554688 108.652344 C 148.554688 108.164062 148.152344 107.761719 147.664062 107.761719 Z M 147.664062 107.761719 " fill-opacity="1" fill-rule="nonzero"/><path fill="#3e393a" d="M 147.664062 111.3125 L 140.566406 111.3125 C 140.078125 111.3125 139.675781 111.710938 139.675781 112.199219 C 139.675781 112.6875 140.078125 113.089844 140.566406 113.089844 L 147.664062 113.089844 C 148.152344 113.089844 148.554688 112.6875 148.554688 112.199219 C 148.554688 111.710938 148.152344 111.3125 147.664062 111.3125 Z M 147.664062 111.3125 " fill-opacity="1" fill-rule="nonzero"/><path fill="#3e393a" d="M 147.664062 114.863281 L 140.566406 114.863281 C 140.078125 114.863281 139.675781 115.261719 139.675781 115.75 C 139.675781 116.238281 140.078125 116.640625 140.566406 116.640625 L 147.664062 116.640625 C 148.152344 116.640625 148.554688 116.238281 148.554688 115.75 C 148.554688 115.261719 148.152344 114.863281 147.664062 114.863281 Z M 147.664062 114.863281 " fill-opacity="1" fill-rule="nonzero"/><path fill="#3e393a" d="M 106.613281 99.332031 C 106.703125 99.332031 106.789062 99.332031 106.878906 99.332031 C 108.742188 96.355469 111.363281 93.871094 114.46875 92.140625 C 114.425781 91.609375 114.378906 91.03125 114.378906 90.453125 C 114.378906 90.367188 114.378906 90.320312 114.378906 90.230469 C 110.386719 92.273438 107.058594 95.46875 104.839844 99.375 C 104.972656 99.375 105.105469 99.332031 105.238281 99.332031 Z M 106.613281 99.332031 " fill-opacity="1" fill-rule="nonzero"/><g clip-path="url(#76d1b7f9a0)"><path fill="#3e393a" d="M 143.492188 122.851562 L 141.363281 122.851562 C 139.941406 124.804688 138.167969 126.445312 136.125 127.824219 C 134.882812 127.289062 133.597656 126.714844 132.621094 126.3125 C 132.042969 126.046875 131.601562 125.871094 131.289062 125.738281 L 130.535156 123.296875 C 132.355469 120.988281 133.464844 117.75 133.464844 114.773438 C 133.464844 109.449219 129.691406 105.101562 125.03125 105.101562 C 120.371094 105.101562 116.597656 109.449219 116.597656 114.773438 C 116.597656 117.75 117.707031 120.988281 119.527344 123.296875 L 118.773438 125.691406 C 118.507812 125.824219 118.019531 126.003906 117.441406 126.269531 C 116.332031 126.757812 114.824219 127.421875 113.402344 128 C 111.050781 126.492188 109.011719 124.582031 107.457031 122.273438 C 107.191406 122.320312 106.925781 122.363281 106.613281 122.363281 L 105.371094 122.363281 C 106.96875 124.894531 109.011719 127.070312 111.449219 128.800781 C 110.386719 129.242188 109.585938 129.597656 109.453125 129.640625 C 109.1875 129.730469 108.964844 129.953125 108.921875 130.21875 L 106.835938 137.632812 C 106.746094 137.898438 106.835938 138.207031 106.96875 138.429688 C 107.101562 138.652344 107.414062 138.785156 107.679688 138.785156 L 142.296875 138.785156 C 142.5625 138.785156 142.828125 138.652344 143.003906 138.429688 C 143.183594 138.207031 143.226562 137.941406 143.140625 137.632812 L 141.054688 130.21875 C 140.964844 129.953125 140.785156 129.730469 140.519531 129.640625 C 140.386719 129.597656 139.320312 129.15625 137.992188 128.53125 C 140.164062 127.023438 142.027344 125.070312 143.492188 122.851562 Z M 118.375 114.773438 C 118.375 110.425781 121.347656 106.875 125.03125 106.875 C 128.714844 106.875 131.6875 110.425781 131.6875 114.773438 C 131.6875 119.125 128.714844 124.628906 125.03125 124.628906 C 121.347656 124.628906 118.375 119.167969 118.375 114.773438 Z M 139.5 131.195312 L 141.140625 137.054688 L 108.875 137.054688 L 110.519531 131.195312 C 111.316406 130.839844 113.269531 130.042969 118.109375 127.910156 C 119.882812 127.15625 119.882812 127.113281 120.015625 127.070312 C 120.148438 126.933594 120.28125 126.800781 120.328125 126.625 L 120.902344 124.761719 C 122.101562 125.78125 123.523438 126.402344 124.988281 126.402344 C 126.453125 126.402344 127.871094 125.78125 129.070312 124.761719 L 129.648438 126.625 C 129.691406 126.800781 129.824219 126.980469 129.957031 127.070312 C 130.046875 127.15625 130.089844 127.15625 131.820312 127.910156 C 136.746094 129.996094 138.699219 130.839844 139.5 131.195312 Z M 139.5 131.195312 " fill-opacity="1" fill-rule="nonzero"/></g><g fill="#39343a" fill-opacity="1"><g transform="translate(175.190172, 119.634087)"><g><path d="M 8.515625 -7.09375 C 9.492188 -7.09375 10.335938 -7.203125 11.046875 -7.421875 C 11.765625 -7.648438 12.320312 -7.929688 12.71875 -8.265625 C 13.113281 -8.597656 13.421875 -9.039062 13.640625 -9.59375 C 13.867188 -10.144531 14.007812 -10.671875 14.0625 -11.171875 C 14.125 -11.671875 14.15625 -12.265625 14.15625 -12.953125 C 14.15625 -13.847656 14.09375 -14.59375 13.96875 -15.1875 C 13.851562 -15.789062 13.613281 -16.394531 13.25 -17 C 12.894531 -17.601562 12.320312 -18.054688 11.53125 -18.359375 C 10.738281 -18.671875 9.734375 -18.828125 8.515625 -18.828125 L 1.8125 -18.828125 L 1.8125 -17.546875 L 3.359375 -17.546875 L 3.359375 -1.296875 L 1.8125 -1.296875 L 1.8125 0 L 7.28125 0 L 7.28125 -1.296875 L 5.21875 -1.296875 L 5.21875 -7.09375 Z M 5.21875 -8.609375 L 5.21875 -17.3125 L 8.515625 -17.3125 C 9.335938 -17.3125 10.007812 -17.207031 10.53125 -17 C 11.0625 -16.789062 11.453125 -16.46875 11.703125 -16.03125 C 11.953125 -15.59375 12.113281 -15.144531 12.1875 -14.6875 C 12.269531 -14.226562 12.3125 -13.644531 12.3125 -12.9375 C 12.3125 -12.238281 12.269531 -11.664062 12.1875 -11.21875 C 12.113281 -10.769531 11.953125 -10.328125 11.703125 -9.890625 C 11.453125 -9.453125 11.0625 -9.128906 10.53125 -8.921875 C 10.007812 -8.710938 9.335938 -8.609375 8.515625 -8.609375 Z M 5.21875 -8.609375 "/></g></g></g><g fill="#39343a" fill-opacity="1"><g transform="translate(190.639704, 119.634087)"><g><path d="M 4.5625 -14.75 L 1.8125 -14.75 L 1.8125 -13.46875 L 3.359375 -13.46875 L 3.359375 -1.296875 L 1.8125 -1.296875 L 1.8125 0 L 7.21875 0 L 7.21875 -1.296875 L 5.15625 -1.296875 L 5.15625 -10.03125 C 6.320312 -12.1875 8.117188 -13.304688 10.546875 -13.390625 L 10.546875 -15.109375 C 8.140625 -15.023438 6.335938 -13.960938 5.140625 -11.921875 Z M 4.5625 -14.75 "/></g></g></g><g fill="#39343a" fill-opacity="1"><g transform="translate(201.44664, 119.634087)"><g><path d="M 7.84375 -1.15625 C 7.019531 -1.15625 6.316406 -1.28125 5.734375 -1.53125 C 5.160156 -1.78125 4.722656 -2.082031 4.421875 -2.4375 C 4.117188 -2.789062 3.878906 -3.269531 3.703125 -3.875 C 3.535156 -4.488281 3.4375 -5.039062 3.40625 -5.53125 C 3.375 -6.019531 3.359375 -6.632812 3.359375 -7.375 C 3.359375 -8.113281 3.375 -8.726562 3.40625 -9.21875 C 3.4375 -9.707031 3.535156 -10.257812 3.703125 -10.875 C 3.878906 -11.488281 4.117188 -11.96875 4.421875 -12.3125 C 4.722656 -12.664062 5.160156 -12.96875 5.734375 -13.21875 C 6.316406 -13.46875 7.019531 -13.59375 7.84375 -13.59375 C 8.664062 -13.59375 9.363281 -13.46875 9.9375 -13.21875 C 10.519531 -12.96875 10.960938 -12.664062 11.265625 -12.3125 C 11.566406 -11.96875 11.800781 -11.488281 11.96875 -10.875 C 12.144531 -10.257812 12.25 -9.707031 12.28125 -9.21875 C 12.3125 -8.726562 12.328125 -8.113281 12.328125 -7.375 C 12.328125 -6.632812 12.3125 -6.019531 12.28125 -5.53125 C 12.25 -5.039062 12.144531 -4.488281 11.96875 -3.875 C 11.800781 -3.269531 11.566406 -2.789062 11.265625 -2.4375 C 10.960938 -2.082031 10.519531 -1.78125 9.9375 -1.53125 C 9.363281 -1.28125 8.664062 -1.15625 7.84375 -1.15625 Z M 7.84375 0.359375 C 8.632812 0.359375 9.34375 0.28125 9.96875 0.125 C 10.59375 -0.03125 11.125 -0.226562 11.5625 -0.46875 C 12.007812 -0.71875 12.390625 -1.039062 12.703125 -1.4375 C 13.023438 -1.832031 13.273438 -2.238281 13.453125 -2.65625 C 13.628906 -3.070312 13.769531 -3.554688 13.875 -4.109375 C 13.976562 -4.671875 14.046875 -5.195312 14.078125 -5.6875 C 14.117188 -6.175781 14.140625 -6.738281 14.140625 -7.375 C 14.140625 -8.007812 14.117188 -8.570312 14.078125 -9.0625 C 14.046875 -9.550781 13.976562 -10.078125 13.875 -10.640625 C 13.769531 -11.203125 13.628906 -11.6875 13.453125 -12.09375 C 13.273438 -12.507812 13.023438 -12.914062 12.703125 -13.3125 C 12.390625 -13.707031 12.007812 -14.03125 11.5625 -14.28125 C 11.125 -14.53125 10.59375 -14.726562 9.96875 -14.875 C 9.34375 -15.03125 8.632812 -15.109375 7.84375 -15.109375 C 7.050781 -15.109375 6.335938 -15.03125 5.703125 -14.875 C 5.078125 -14.726562 4.546875 -14.53125 4.109375 -14.28125 C 3.671875 -14.03125 3.289062 -13.707031 2.96875 -13.3125 C 2.65625 -12.914062 2.40625 -12.507812 2.21875 -12.09375 C 2.039062 -11.6875 1.898438 -11.203125 1.796875 -10.640625 C 1.703125 -10.078125 1.632812 -9.550781 1.59375 -9.0625 C 1.5625 -8.570312 1.546875 -8.007812 1.546875 -7.375 C 1.546875 -6.738281 1.5625 -6.175781 1.59375 -5.6875 C 1.632812 -5.195312 1.703125 -4.671875 1.796875 -4.109375 C 1.898438 -3.554688 2.039062 -3.070312 2.21875 -2.65625 C 2.40625 -2.238281 2.65625 -1.832031 2.96875 -1.4375 C 3.289062 -1.039062 3.671875 -0.71875 4.109375 -0.46875 C 4.546875 -0.226562 5.078125 -0.03125 5.703125 0.125 C 6.335938 0.28125 7.050781 0.359375 7.84375 0.359375 Z M 7.84375 0.359375 "/></g></g></g><g fill="#39343a" fill-opacity="1"><g transform="translate(217.128308, 119.634087)"><g><path d="M 1.546875 -13.46875 L 3.09375 -13.46875 L 3.09375 2.015625 C 3.09375 2.816406 2.976562 3.378906 2.75 3.703125 C 2.519531 4.035156 2.039062 4.238281 1.3125 4.3125 L -0.265625 4.4375 L -0.265625 5.859375 L 1.3125 5.859375 C 2.78125 5.859375 3.742188 5.550781 4.203125 4.9375 C 4.671875 4.332031 4.90625 3.359375 4.90625 2.015625 L 4.90625 -14.75 L 1.546875 -14.75 Z M 4.25 -17.328125 C 4.75 -17.328125 5.066406 -17.445312 5.203125 -17.6875 C 5.347656 -17.9375 5.421875 -18.273438 5.421875 -18.703125 C 5.421875 -18.992188 5.398438 -19.21875 5.359375 -19.375 C 5.328125 -19.539062 5.21875 -19.703125 5.03125 -19.859375 C 4.851562 -20.015625 4.59375 -20.09375 4.25 -20.09375 C 3.925781 -20.09375 3.675781 -20.015625 3.5 -19.859375 C 3.332031 -19.703125 3.226562 -19.539062 3.1875 -19.375 C 3.15625 -19.21875 3.140625 -18.992188 3.140625 -18.703125 C 3.140625 -18.429688 3.15625 -18.210938 3.1875 -18.046875 C 3.226562 -17.878906 3.332031 -17.71875 3.5 -17.5625 C 3.675781 -17.40625 3.925781 -17.328125 4.25 -17.328125 Z M 4.25 -17.328125 "/></g></g></g><g fill="#39343a" fill-opacity="1"><g transform="translate(225.123896, 119.634087)"><g><path d="M 7.96875 0.359375 C 9.070312 0.359375 9.992188 0.234375 10.734375 -0.015625 C 11.484375 -0.273438 12.050781 -0.648438 12.4375 -1.140625 C 12.832031 -1.640625 13.113281 -2.148438 13.28125 -2.671875 C 13.457031 -3.191406 13.578125 -3.820312 13.640625 -4.5625 L 12.15625 -4.640625 C 12.050781 -3.503906 11.703125 -2.640625 11.109375 -2.046875 C 10.523438 -1.453125 9.460938 -1.15625 7.921875 -1.15625 C 6.210938 -1.15625 5.070312 -1.597656 4.5 -2.484375 C 3.925781 -3.367188 3.628906 -4.863281 3.609375 -6.96875 L 13.875 -6.96875 L 13.875 -7.375 C 13.875 -8.289062 13.835938 -9.078125 13.765625 -9.734375 C 13.703125 -10.398438 13.550781 -11.09375 13.3125 -11.8125 C 13.070312 -12.539062 12.738281 -13.125 12.3125 -13.5625 C 11.894531 -14.007812 11.3125 -14.378906 10.5625 -14.671875 C 9.8125 -14.960938 8.910156 -15.109375 7.859375 -15.109375 C 6.816406 -15.109375 5.914062 -14.960938 5.15625 -14.671875 C 4.40625 -14.378906 3.8125 -14.007812 3.375 -13.5625 C 2.945312 -13.125 2.613281 -12.539062 2.375 -11.8125 C 2.132812 -11.09375 1.976562 -10.398438 1.90625 -9.734375 C 1.84375 -9.078125 1.8125 -8.289062 1.8125 -7.375 C 1.8125 -4.675781 2.234375 -2.710938 3.078125 -1.484375 C 3.929688 -0.253906 5.5625 0.359375 7.96875 0.359375 Z M 7.84375 -13.59375 C 8.71875 -13.59375 9.441406 -13.460938 10.015625 -13.203125 C 10.597656 -12.953125 11.023438 -12.5625 11.296875 -12.03125 C 11.578125 -11.507812 11.765625 -10.972656 11.859375 -10.421875 C 11.960938 -9.867188 12.023438 -9.191406 12.046875 -8.390625 L 3.609375 -8.390625 C 3.628906 -9.160156 3.691406 -9.820312 3.796875 -10.375 C 3.910156 -10.925781 4.109375 -11.460938 4.390625 -11.984375 C 4.679688 -12.503906 5.113281 -12.898438 5.6875 -13.171875 C 6.257812 -13.453125 6.976562 -13.59375 7.84375 -13.59375 Z M 7.84375 -13.59375 "/></g></g></g><g fill="#39343a" fill-opacity="1"><g transform="translate(240.547635, 119.634087)"><g><path d="M 11.53125 -14.75 L 11.5625 -13.15625 C 10.695312 -14.457031 9.335938 -15.109375 7.484375 -15.109375 C 6.484375 -15.109375 5.617188 -14.96875 4.890625 -14.6875 C 4.160156 -14.40625 3.582031 -14.039062 3.15625 -13.59375 C 2.738281 -13.144531 2.40625 -12.566406 2.15625 -11.859375 C 1.90625 -11.160156 1.738281 -10.46875 1.65625 -9.78125 C 1.582031 -9.09375 1.546875 -8.289062 1.546875 -7.375 C 1.546875 -6.46875 1.578125 -5.679688 1.640625 -5.015625 C 1.710938 -4.359375 1.867188 -3.664062 2.109375 -2.9375 C 2.347656 -2.21875 2.675781 -1.632812 3.09375 -1.1875 C 3.519531 -0.738281 4.113281 -0.367188 4.875 -0.078125 C 5.644531 0.210938 6.554688 0.359375 7.609375 0.359375 C 8.660156 0.359375 9.535156 0.253906 10.234375 0.046875 C 10.941406 -0.160156 11.484375 -0.484375 11.859375 -0.921875 C 12.242188 -1.359375 12.515625 -1.820312 12.671875 -2.3125 C 12.835938 -2.8125 12.945312 -3.429688 13 -4.171875 L 11.53125 -4.25 C 11.457031 -3.1875 11.160156 -2.40625 10.640625 -1.90625 C 10.117188 -1.40625 9.097656 -1.15625 7.578125 -1.15625 C 6.929688 -1.15625 6.363281 -1.234375 5.875 -1.390625 C 5.394531 -1.546875 5.003906 -1.785156 4.703125 -2.109375 C 4.398438 -2.441406 4.15625 -2.78125 3.96875 -3.125 C 3.78125 -3.46875 3.644531 -3.90625 3.5625 -4.4375 C 3.476562 -4.96875 3.421875 -5.4375 3.390625 -5.84375 C 3.367188 -6.257812 3.359375 -6.769531 3.359375 -7.375 C 3.359375 -8.082031 3.375 -8.679688 3.40625 -9.171875 C 3.4375 -9.660156 3.535156 -10.207031 3.703125 -10.8125 C 3.867188 -11.414062 4.085938 -11.898438 4.359375 -12.265625 C 4.628906 -12.640625 5.023438 -12.953125 5.546875 -13.203125 C 6.078125 -13.460938 6.710938 -13.59375 7.453125 -13.59375 C 8.796875 -13.59375 9.789062 -13.253906 10.4375 -12.578125 C 11.09375 -11.910156 11.5 -10.898438 11.65625 -9.546875 L 12.84375 -9.546875 L 12.84375 -14.75 Z M 11.53125 -14.75 "/></g></g></g><g fill="#39343a" fill-opacity="1"><g transform="translate(255.171822, 119.634087)"><g><path d="M 0.90625 -13.46875 L 3.21875 -13.46875 L 3.21875 -3.21875 C 3.21875 -2.789062 3.226562 -2.429688 3.25 -2.140625 C 3.28125 -1.847656 3.347656 -1.53125 3.453125 -1.1875 C 3.554688 -0.84375 3.695312 -0.566406 3.875 -0.359375 C 4.0625 -0.148438 4.320312 0.0195312 4.65625 0.15625 C 4.988281 0.289062 5.390625 0.359375 5.859375 0.359375 C 6.472656 0.359375 7.210938 0.238281 8.078125 0 L 7.84375 -1.265625 C 7.238281 -1.128906 6.765625 -1.0625 6.421875 -1.0625 C 5.921875 -1.0625 5.5625 -1.222656 5.34375 -1.546875 C 5.132812 -1.867188 5.03125 -2.425781 5.03125 -3.21875 L 5.03125 -13.46875 L 7.734375 -13.46875 L 7.734375 -14.75 L 5.03125 -14.75 L 5.03125 -18.0625 L 3.21875 -17.703125 L 3.21875 -14.75 L 0.90625 -14.75 Z M 0.90625 -13.46875 "/></g></g></g><g fill="#39343a" fill-opacity="1"><g transform="translate(264.534398, 119.634087)"><g><path d="M 10.96875 -14.75 L 10.984375 -13.265625 C 10.191406 -14.492188 8.773438 -15.109375 6.734375 -15.109375 C 5.128906 -15.109375 3.921875 -14.734375 3.109375 -13.984375 C 2.296875 -13.242188 1.890625 -12.265625 1.890625 -11.046875 C 1.890625 -9.753906 2.234375 -8.816406 2.921875 -8.234375 C 3.609375 -7.660156 4.75 -7.171875 6.34375 -6.765625 L 8.359375 -6.21875 C 9.359375 -5.957031 10.054688 -5.632812 10.453125 -5.25 C 10.847656 -4.875 11.046875 -4.378906 11.046875 -3.765625 C 11.046875 -2.023438 9.875 -1.15625 7.53125 -1.15625 C 4.882812 -1.15625 3.414062 -2.507812 3.125 -5.21875 L 1.9375 -5.21875 L 1.9375 0 L 3.25 0 L 3.203125 -1.90625 C 4.097656 -0.394531 5.617188 0.359375 7.765625 0.359375 C 11.148438 0.359375 12.84375 -1.015625 12.84375 -3.765625 C 12.84375 -4.984375 12.503906 -5.878906 11.828125 -6.453125 C 11.148438 -7.035156 10.019531 -7.539062 8.4375 -7.96875 L 6.421875 -8.515625 C 5.410156 -8.773438 4.703125 -9.085938 4.296875 -9.453125 C 3.890625 -9.828125 3.6875 -10.363281 3.6875 -11.0625 C 3.6875 -11.820312 3.929688 -12.429688 4.421875 -12.890625 C 4.910156 -13.359375 5.679688 -13.59375 6.734375 -13.59375 C 7.503906 -13.59375 8.117188 -13.546875 8.578125 -13.453125 C 9.046875 -13.359375 9.46875 -13.164062 9.84375 -12.875 C 10.226562 -12.59375 10.515625 -12.1875 10.703125 -11.65625 C 10.890625 -11.125 11.019531 -10.421875 11.09375 -9.546875 L 12.28125 -9.546875 L 12.28125 -14.75 Z M 10.96875 -14.75 "/></g></g></g></svg>