<svg xmlns="http://www.w3.org/2000/svg" xmlns:xlink="http://www.w3.org/1999/xlink" width="551" zoomAndPan="magnify" viewBox="0 0 413.25 221.249992" height="295" preserveAspectRatio="xMidYMid meet" version="1.0"><defs><g/><clipPath id="b415b36f99"><path d="M 86.183594 87.773438 L 143.738281 87.773438 L 143.738281 132.625 L 86.183594 132.625 Z M 86.183594 87.773438 " clip-rule="nonzero"/></clipPath></defs><g clip-path="url(#b415b36f99)"><path fill="#0d6efc" d="M 96.449219 87.84375 C 96.769531 87.84375 97.085938 87.875 97.398438 87.9375 C 97.710938 88 98.015625 88.089844 98.308594 88.214844 C 98.601562 88.335938 98.882812 88.488281 99.148438 88.667969 C 99.414062 88.84375 99.660156 89.046875 99.882812 89.273438 C 100.109375 89.5 100.3125 89.75 100.488281 90.015625 C 100.664062 90.28125 100.816406 90.566406 100.9375 90.863281 C 101.058594 91.160156 101.152344 91.464844 101.214844 91.78125 C 101.277344 92.097656 101.308594 92.414062 101.308594 92.734375 C 101.308594 93.058594 101.277344 93.375 101.214844 93.691406 C 101.152344 94.007812 101.0625 94.3125 100.9375 94.609375 C 100.816406 94.90625 100.667969 95.1875 100.492188 95.457031 C 100.3125 95.722656 100.113281 95.96875 99.886719 96.199219 C 99.660156 96.425781 99.417969 96.628906 99.152344 96.804688 C 98.886719 96.984375 98.605469 97.136719 98.3125 97.257812 C 98.015625 97.382812 97.714844 97.476562 97.402344 97.539062 C 97.089844 97.601562 96.773438 97.632812 96.453125 97.632812 C 96.136719 97.632812 95.820312 97.601562 95.507812 97.535156 C 95.195312 97.472656 94.890625 97.382812 94.597656 97.257812 C 94.300781 97.132812 94.023438 96.984375 93.757812 96.804688 C 93.492188 96.625 93.246094 96.421875 93.023438 96.195312 C 92.796875 95.96875 92.597656 95.71875 92.417969 95.453125 C 92.242188 95.1875 92.09375 94.902344 91.972656 94.605469 C 91.847656 94.308594 91.757812 94.003906 91.695312 93.6875 C 91.632812 93.371094 91.601562 93.054688 91.601562 92.734375 C 91.601562 92.410156 91.632812 92.09375 91.695312 91.777344 C 91.757812 91.464844 91.851562 91.15625 91.972656 90.863281 C 92.09375 90.566406 92.242188 90.28125 92.421875 90.015625 C 92.597656 89.75 92.796875 89.503906 93.023438 89.273438 C 93.246094 89.046875 93.492188 88.84375 93.757812 88.667969 C 94.023438 88.488281 94.300781 88.339844 94.59375 88.214844 C 94.890625 88.09375 95.191406 88 95.503906 87.9375 C 95.816406 87.875 96.132812 87.84375 96.449219 87.84375 Z M 93.027344 98.566406 L 94.75 103.125 L 94.933594 103.125 L 95.773438 100.207031 L 95.304688 99.710938 C 94.964844 99.214844 95.082031 98.648438 95.710938 98.542969 C 95.9375 98.527344 96.164062 98.527344 96.390625 98.542969 C 96.640625 98.527344 96.886719 98.539062 97.132812 98.570312 C 97.714844 98.703125 97.777344 99.269531 97.484375 99.722656 L 97.015625 100.21875 L 97.894531 103.125 L 98.070312 103.125 L 99.625 98.566406 C 99.695312 98.628906 99.769531 98.6875 99.847656 98.742188 C 100.296875 98.78125 100.722656 98.917969 101.117188 99.144531 C 101.714844 99.261719 102.179688 99.578125 102.519531 100.085938 L 106.222656 105.242188 L 108.859375 105.75 L 108.859375 95.71875 L 105.109375 95.71875 C 104.871094 95.71875 104.664062 95.632812 104.496094 95.460938 C 104.324219 95.289062 104.238281 95.082031 104.238281 94.839844 C 104.238281 94.597656 104.324219 94.390625 104.496094 94.21875 C 104.664062 94.046875 104.871094 93.960938 105.109375 93.960938 L 122.511719 93.960938 L 122.511719 91.394531 C 122.527344 91.164062 122.621094 90.96875 122.789062 90.8125 C 122.957031 90.65625 123.15625 90.578125 123.386719 90.578125 C 123.613281 90.578125 123.8125 90.65625 123.980469 90.8125 C 124.148438 90.96875 124.242188 91.164062 124.257812 91.394531 L 124.257812 93.984375 L 142.773438 93.984375 C 143.015625 93.984375 143.21875 94.070312 143.390625 94.242188 C 143.558594 94.414062 143.644531 94.621094 143.644531 94.863281 C 143.644531 95.105469 143.558594 95.3125 143.390625 95.484375 C 143.21875 95.65625 143.015625 95.742188 142.773438 95.742188 L 139.058594 95.742188 L 139.058594 117.476562 L 142.859375 117.476562 C 143.097656 117.476562 143.304688 117.5625 143.472656 117.734375 C 143.644531 117.90625 143.730469 118.113281 143.730469 118.355469 C 143.730469 118.597656 143.644531 118.804688 143.472656 118.976562 C 143.304688 119.148438 143.097656 119.234375 142.859375 119.234375 L 124.378906 119.234375 L 124.378906 123.273438 C 124.417969 123.308594 124.460938 123.339844 124.503906 123.367188 L 129.945312 128.5625 C 130.035156 128.640625 130.109375 128.734375 130.164062 128.839844 C 130.21875 128.949219 130.25 129.0625 130.253906 129.183594 C 130.261719 129.304688 130.246094 129.421875 130.203125 129.535156 C 130.164062 129.648438 130.101562 129.75 130.019531 129.835938 C 129.9375 129.921875 129.839844 129.992188 129.730469 130.039062 C 129.621094 130.085938 129.503906 130.109375 129.386719 130.109375 C 129.265625 130.109375 129.152344 130.082031 129.042969 130.035156 C 128.933594 129.988281 128.835938 129.917969 128.753906 129.828125 L 124.378906 125.632812 L 124.378906 129.414062 C 124.363281 129.644531 124.269531 129.839844 124.101562 129.996094 C 123.933594 130.152344 123.738281 130.234375 123.507812 130.234375 C 123.277344 130.234375 123.078125 130.152344 122.910156 129.996094 C 122.742188 129.839844 122.648438 129.644531 122.632812 129.414062 L 122.632812 125.484375 L 118.09375 129.835938 C 117.921875 130.003906 117.714844 130.082031 117.472656 130.078125 C 117.234375 130.070312 117.03125 129.976562 116.867188 129.800781 C 116.699219 129.628906 116.617188 129.417969 116.625 129.175781 C 116.632812 128.933594 116.722656 128.730469 116.898438 128.566406 L 122.34375 123.371094 C 122.425781 123.289062 122.523438 123.226562 122.632812 123.1875 L 122.632812 119.234375 L 105.09375 119.234375 C 104.851562 119.234375 104.648438 119.148438 104.476562 118.976562 C 104.304688 118.804688 104.222656 118.597656 104.222656 118.355469 C 104.222656 118.113281 104.304688 117.90625 104.476562 117.734375 C 104.648438 117.5625 104.851562 117.476562 105.09375 117.476562 L 108.839844 117.476562 L 108.839844 110.4375 L 104.496094 109.574219 C 103.894531 109.46875 103.410156 109.171875 103.046875 108.675781 L 101.203125 106.101562 L 101.203125 106.167969 L 101.054688 113.621094 L 102.929688 125.542969 L 103.636719 129.632812 C 104.035156 132.363281 99.890625 133.980469 98.863281 130.394531 L 96.445312 116.027344 L 93.988281 130.628906 C 93.519531 133.269531 89.242188 133.292969 89.214844 130.085938 L 91.925781 113.714844 L 91.71875 104.878906 C 91.488281 105.164062 91.300781 105.480469 91.164062 105.824219 C 90.871094 106.515625 90.714844 107.234375 90.695312 107.984375 L 90.320312 113.140625 C 90.113281 115.832031 86.136719 115.996094 86.183594 113.09375 C 86.207031 111.789062 86.324219 110.476562 86.464844 109.136719 C 86.738281 106.578125 86.792969 104.992188 88.238281 102.441406 C 88.785156 101.484375 89.488281 100.664062 90.347656 99.980469 C 91.027344 99.4375 91.789062 99.074219 92.632812 98.882812 C 92.773438 98.789062 92.902344 98.683594 93.027344 98.566406 Z M 110.601562 105.917969 L 115.5 100.71875 C 115.605469 100.601562 115.726562 100.507812 115.867188 100.441406 C 116.011719 100.375 116.160156 100.335938 116.316406 100.328125 C 116.472656 100.324219 116.625 100.347656 116.769531 100.402344 C 116.917969 100.457031 117.046875 100.539062 117.160156 100.648438 C 117.273438 100.757812 117.363281 100.886719 117.425781 101.03125 C 117.488281 101.175781 117.519531 101.328125 117.523438 101.484375 C 117.523438 101.644531 117.492188 101.796875 117.433594 101.941406 C 117.375 102.085938 117.289062 102.214844 117.175781 102.328125 L 112.566406 107.210938 C 112.785156 107.570312 112.902344 107.957031 112.910156 108.378906 C 112.917969 108.800781 112.820312 109.191406 112.613281 109.558594 C 112.410156 109.925781 112.128906 110.214844 111.765625 110.425781 C 111.40625 110.636719 111.015625 110.738281 110.601562 110.734375 L 110.601562 117.476562 L 137.332031 117.476562 L 137.332031 95.71875 L 110.601562 95.71875 Z M 110.601562 105.917969 " fill-opacity="1" fill-rule="evenodd"/></g><g fill="#39343a" fill-opacity="1"><g transform="translate(152.815895, 119.510019)"><g><path d="M 13.625 -14.75 L 13.625 -18.828125 L 0.265625 -18.828125 L 0.265625 -14.75 L 1.703125 -14.75 L 1.703125 -17.3125 L 6.015625 -17.3125 L 6.015625 -1.296875 L 3.953125 -1.296875 L 3.953125 0 L 9.9375 0 L 9.9375 -1.296875 L 7.875 -1.296875 L 7.875 -17.3125 L 12.171875 -17.3125 L 12.171875 -14.75 Z M 13.625 -14.75 "/></g></g></g><g fill="#39343a" fill-opacity="1"><g transform="translate(166.692109, 119.510019)"><g><path d="M 4.5625 -14.75 L 1.8125 -14.75 L 1.8125 -13.46875 L 3.359375 -13.46875 L 3.359375 -1.296875 L 1.8125 -1.296875 L 1.8125 0 L 7.21875 0 L 7.21875 -1.296875 L 5.15625 -1.296875 L 5.15625 -10.03125 C 6.320312 -12.1875 8.117188 -13.304688 10.546875 -13.390625 L 10.546875 -15.109375 C 8.140625 -15.023438 6.335938 -13.960938 5.140625 -11.921875 Z M 4.5625 -14.75 "/></g></g></g><g fill="#39343a" fill-opacity="1"><g transform="translate(177.499044, 119.510019)"><g><path d="M 11.484375 0 L 14.234375 0 L 14.234375 -1.296875 L 12.6875 -1.296875 L 12.6875 -10.984375 C 12.6875 -13.734375 10.984375 -15.109375 7.578125 -15.109375 C 6.546875 -15.109375 5.6875 -15.003906 5 -14.796875 C 4.3125 -14.597656 3.78125 -14.28125 3.40625 -13.84375 C 3.039062 -13.40625 2.773438 -12.9375 2.609375 -12.4375 C 2.453125 -11.9375 2.347656 -11.316406 2.296875 -10.578125 L 3.8125 -10.5 C 3.882812 -11.5625 4.164062 -12.34375 4.65625 -12.84375 C 5.144531 -13.34375 6.117188 -13.59375 7.578125 -13.59375 C 9.785156 -13.59375 10.890625 -12.722656 10.890625 -10.984375 L 10.890625 -8.40625 L 6.109375 -8.09375 C 4.378906 -7.976562 3.203125 -7.59375 2.578125 -6.9375 C 1.960938 -6.28125 1.65625 -5.210938 1.65625 -3.734375 C 1.65625 -2.378906 1.972656 -1.359375 2.609375 -0.671875 C 3.253906 0.015625 4.390625 0.359375 6.015625 0.359375 C 7.835938 0.359375 9.503906 -0.316406 11.015625 -1.671875 Z M 6.265625 -1.109375 C 5.210938 -1.109375 4.472656 -1.316406 4.046875 -1.734375 C 3.617188 -2.160156 3.40625 -2.800781 3.40625 -3.65625 C 3.40625 -4.832031 3.597656 -5.617188 3.984375 -6.015625 C 4.367188 -6.421875 5.113281 -6.660156 6.21875 -6.734375 L 10.890625 -7.015625 L 10.890625 -3.125 C 9.472656 -1.78125 7.929688 -1.109375 6.265625 -1.109375 Z M 6.265625 -1.109375 "/></g></g></g><g fill="#39343a" fill-opacity="1"><g transform="translate(193.283878, 119.510019)"><g><path d="M 1.8125 -13.46875 L 3.359375 -13.46875 L 3.359375 -1.296875 L 1.8125 -1.296875 L 1.8125 0 L 6.703125 0 L 6.703125 -1.296875 L 5.15625 -1.296875 L 5.15625 -14.75 L 1.8125 -14.75 Z M 4.25 -17.328125 C 4.75 -17.328125 5.066406 -17.445312 5.203125 -17.6875 C 5.347656 -17.9375 5.421875 -18.273438 5.421875 -18.703125 C 5.421875 -18.992188 5.398438 -19.21875 5.359375 -19.375 C 5.328125 -19.539062 5.21875 -19.703125 5.03125 -19.859375 C 4.851562 -20.015625 4.59375 -20.09375 4.25 -20.09375 C 3.925781 -20.09375 3.675781 -20.015625 3.5 -19.859375 C 3.332031 -19.703125 3.226562 -19.539062 3.1875 -19.375 C 3.15625 -19.21875 3.140625 -18.992188 3.140625 -18.703125 C 3.140625 -18.429688 3.15625 -18.210938 3.1875 -18.046875 C 3.226562 -17.878906 3.332031 -17.71875 3.5 -17.5625 C 3.675781 -17.40625 3.925781 -17.328125 4.25 -17.328125 Z M 4.25 -17.328125 "/></g></g></g><g fill="#39343a" fill-opacity="1"><g transform="translate(201.537385, 119.510019)"><g><path d="M 1.8125 -13.46875 L 3.359375 -13.46875 L 3.359375 -1.296875 L 1.8125 -1.296875 L 1.8125 0 L 6.703125 0 L 6.703125 -1.296875 L 5.15625 -1.296875 L 5.15625 -11.6875 C 6.757812 -12.957031 8.4375 -13.59375 10.1875 -13.59375 C 11.164062 -13.59375 11.863281 -13.351562 12.28125 -12.875 C 12.707031 -12.394531 12.921875 -11.613281 12.921875 -10.53125 L 12.921875 -1.296875 L 11.375 -1.296875 L 11.375 0 L 16.28125 0 L 16.28125 -1.296875 L 14.734375 -1.296875 L 14.734375 -10.5 C 14.734375 -12.082031 14.398438 -13.242188 13.734375 -13.984375 C 13.078125 -14.734375 11.988281 -15.109375 10.46875 -15.109375 C 8.5625 -15.109375 6.738281 -14.441406 5 -13.109375 L 4.5625 -14.75 L 1.8125 -14.75 Z M 1.8125 -13.46875 "/></g></g></g><g fill="#39343a" fill-opacity="1"><g transform="translate(219.359799, 119.510019)"><g/></g></g><g fill="#39343a" fill-opacity="1"><g transform="translate(226.710578, 119.510019)"><g><path d="M 16.359375 0 L 21.3125 0 L 21.3125 -1.296875 L 19.765625 -1.296875 L 19.765625 -17.546875 L 21.3125 -17.546875 L 21.3125 -18.828125 L 17.203125 -18.828125 L 11.375 -3.65625 L 5.90625 -18.828125 L 1.8125 -18.828125 L 1.8125 -17.546875 L 3.359375 -17.546875 L 3.359375 -1.296875 L 1.8125 -1.296875 L 1.8125 0 L 6.765625 0 L 6.765625 -1.296875 L 5.21875 -1.296875 L 5.21875 -15.703125 L 10.421875 -1.4375 L 12.28125 -1.4375 L 17.90625 -15.921875 L 17.90625 -1.296875 L 16.359375 -1.296875 Z M 16.359375 0 "/></g></g></g><g fill="#39343a" fill-opacity="1"><g transform="translate(249.820397, 119.510019)"><g><path d="M 7.84375 -1.15625 C 7.019531 -1.15625 6.316406 -1.28125 5.734375 -1.53125 C 5.160156 -1.78125 4.722656 -2.082031 4.421875 -2.4375 C 4.117188 -2.789062 3.878906 -3.269531 3.703125 -3.875 C 3.535156 -4.488281 3.4375 -5.039062 3.40625 -5.53125 C 3.375 -6.019531 3.359375 -6.632812 3.359375 -7.375 C 3.359375 -8.113281 3.375 -8.726562 3.40625 -9.21875 C 3.4375 -9.707031 3.535156 -10.257812 3.703125 -10.875 C 3.878906 -11.488281 4.117188 -11.96875 4.421875 -12.3125 C 4.722656 -12.664062 5.160156 -12.96875 5.734375 -13.21875 C 6.316406 -13.46875 7.019531 -13.59375 7.84375 -13.59375 C 8.664062 -13.59375 9.363281 -13.46875 9.9375 -13.21875 C 10.519531 -12.96875 10.960938 -12.664062 11.265625 -12.3125 C 11.566406 -11.96875 11.800781 -11.488281 11.96875 -10.875 C 12.144531 -10.257812 12.25 -9.707031 12.28125 -9.21875 C 12.3125 -8.726562 12.328125 -8.113281 12.328125 -7.375 C 12.328125 -6.632812 12.3125 -6.019531 12.28125 -5.53125 C 12.25 -5.039062 12.144531 -4.488281 11.96875 -3.875 C 11.800781 -3.269531 11.566406 -2.789062 11.265625 -2.4375 C 10.960938 -2.082031 10.519531 -1.78125 9.9375 -1.53125 C 9.363281 -1.28125 8.664062 -1.15625 7.84375 -1.15625 Z M 7.84375 0.359375 C 8.632812 0.359375 9.34375 0.28125 9.96875 0.125 C 10.59375 -0.03125 11.125 -0.226562 11.5625 -0.46875 C 12.007812 -0.71875 12.390625 -1.039062 12.703125 -1.4375 C 13.023438 -1.832031 13.273438 -2.238281 13.453125 -2.65625 C 13.628906 -3.070312 13.769531 -3.554688 13.875 -4.109375 C 13.976562 -4.671875 14.046875 -5.195312 14.078125 -5.6875 C 14.117188 -6.175781 14.140625 -6.738281 14.140625 -7.375 C 14.140625 -8.007812 14.117188 -8.570312 14.078125 -9.0625 C 14.046875 -9.550781 13.976562 -10.078125 13.875 -10.640625 C 13.769531 -11.203125 13.628906 -11.6875 13.453125 -12.09375 C 13.273438 -12.507812 13.023438 -12.914062 12.703125 -13.3125 C 12.390625 -13.707031 12.007812 -14.03125 11.5625 -14.28125 C 11.125 -14.53125 10.59375 -14.726562 9.96875 -14.875 C 9.34375 -15.03125 8.632812 -15.109375 7.84375 -15.109375 C 7.050781 -15.109375 6.335938 -15.03125 5.703125 -14.875 C 5.078125 -14.726562 4.546875 -14.53125 4.109375 -14.28125 C 3.671875 -14.03125 3.289062 -13.707031 2.96875 -13.3125 C 2.65625 -12.914062 2.40625 -12.507812 2.21875 -12.09375 C 2.039062 -11.6875 1.898438 -11.203125 1.796875 -10.640625 C 1.703125 -10.078125 1.632812 -9.550781 1.59375 -9.0625 C 1.5625 -8.570312 1.546875 -8.007812 1.546875 -7.375 C 1.546875 -6.738281 1.5625 -6.175781 1.59375 -5.6875 C 1.632812 -5.195312 1.703125 -4.671875 1.796875 -4.109375 C 1.898438 -3.554688 2.039062 -3.070312 2.21875 -2.65625 C 2.40625 -2.238281 2.65625 -1.832031 2.96875 -1.4375 C 3.289062 -1.039062 3.671875 -0.71875 4.109375 -0.46875 C 4.546875 -0.226562 5.078125 -0.03125 5.703125 0.125 C 6.335938 0.28125 7.050781 0.359375 7.84375 0.359375 Z M 7.84375 0.359375 "/></g></g></g><g fill="#39343a" fill-opacity="1"><g transform="translate(265.502065, 119.510019)"><g><path d="M 12.09375 0 L 14.859375 0 L 14.859375 -1.296875 L 13.3125 -1.296875 L 13.3125 -19.34375 L 9.953125 -19.34375 L 9.953125 -18.0625 L 11.5 -18.0625 L 11.5 -14.1875 C 10.019531 -14.800781 8.59375 -15.109375 7.21875 -15.109375 C 6.238281 -15.109375 5.390625 -14.960938 4.671875 -14.671875 C 3.960938 -14.378906 3.410156 -14.007812 3.015625 -13.5625 C 2.617188 -13.125 2.304688 -12.539062 2.078125 -11.8125 C 1.847656 -11.09375 1.703125 -10.398438 1.640625 -9.734375 C 1.578125 -9.078125 1.546875 -8.289062 1.546875 -7.375 C 1.546875 -6.46875 1.578125 -5.679688 1.640625 -5.015625 C 1.703125 -4.359375 1.84375 -3.664062 2.0625 -2.9375 C 2.289062 -2.21875 2.597656 -1.632812 2.984375 -1.1875 C 3.367188 -0.738281 3.910156 -0.367188 4.609375 -0.078125 C 5.304688 0.210938 6.132812 0.359375 7.09375 0.359375 C 8.757812 0.359375 10.316406 -0.273438 11.765625 -1.546875 Z M 7.40625 -1.15625 C 5.800781 -1.15625 4.722656 -1.679688 4.171875 -2.734375 C 3.628906 -3.785156 3.359375 -5.332031 3.359375 -7.375 C 3.359375 -8.351562 3.410156 -9.1875 3.515625 -9.875 C 3.628906 -10.5625 3.828125 -11.203125 4.109375 -11.796875 C 4.398438 -12.390625 4.820312 -12.835938 5.375 -13.140625 C 5.9375 -13.441406 6.640625 -13.59375 7.484375 -13.59375 C 8.910156 -13.59375 10.25 -13.300781 11.5 -12.71875 L 11.5 -2.890625 C 10.25 -1.734375 8.882812 -1.15625 7.40625 -1.15625 Z M 7.40625 -1.15625 "/></g></g></g><g fill="#39343a" fill-opacity="1"><g transform="translate(281.905913, 119.510019)"><g><path d="M 7.96875 0.359375 C 9.070312 0.359375 9.992188 0.234375 10.734375 -0.015625 C 11.484375 -0.273438 12.050781 -0.648438 12.4375 -1.140625 C 12.832031 -1.640625 13.113281 -2.148438 13.28125 -2.671875 C 13.457031 -3.191406 13.578125 -3.820312 13.640625 -4.5625 L 12.15625 -4.640625 C 12.050781 -3.503906 11.703125 -2.640625 11.109375 -2.046875 C 10.523438 -1.453125 9.460938 -1.15625 7.921875 -1.15625 C 6.210938 -1.15625 5.070312 -1.597656 4.5 -2.484375 C 3.925781 -3.367188 3.628906 -4.863281 3.609375 -6.96875 L 13.875 -6.96875 L 13.875 -7.375 C 13.875 -8.289062 13.835938 -9.078125 13.765625 -9.734375 C 13.703125 -10.398438 13.550781 -11.09375 13.3125 -11.8125 C 13.070312 -12.539062 12.738281 -13.125 12.3125 -13.5625 C 11.894531 -14.007812 11.3125 -14.378906 10.5625 -14.671875 C 9.8125 -14.960938 8.910156 -15.109375 7.859375 -15.109375 C 6.816406 -15.109375 5.914062 -14.960938 5.15625 -14.671875 C 4.40625 -14.378906 3.8125 -14.007812 3.375 -13.5625 C 2.945312 -13.125 2.613281 -12.539062 2.375 -11.8125 C 2.132812 -11.09375 1.976562 -10.398438 1.90625 -9.734375 C 1.84375 -9.078125 1.8125 -8.289062 1.8125 -7.375 C 1.8125 -4.675781 2.234375 -2.710938 3.078125 -1.484375 C 3.929688 -0.253906 5.5625 0.359375 7.96875 0.359375 Z M 7.84375 -13.59375 C 8.71875 -13.59375 9.441406 -13.460938 10.015625 -13.203125 C 10.597656 -12.953125 11.023438 -12.5625 11.296875 -12.03125 C 11.578125 -11.507812 11.765625 -10.972656 11.859375 -10.421875 C 11.960938 -9.867188 12.023438 -9.191406 12.046875 -8.390625 L 3.609375 -8.390625 C 3.628906 -9.160156 3.691406 -9.820312 3.796875 -10.375 C 3.910156 -10.925781 4.109375 -11.460938 4.390625 -11.984375 C 4.679688 -12.503906 5.113281 -12.898438 5.6875 -13.171875 C 6.257812 -13.453125 6.976562 -13.59375 7.84375 -13.59375 Z M 7.84375 -13.59375 "/></g></g></g><g fill="#39343a" fill-opacity="1"><g transform="translate(297.329652, 119.510019)"><g><path d="M 1.546875 -18.0625 L 3.09375 -18.0625 L 3.09375 -1.296875 L 1.546875 -1.296875 L 1.546875 0 L 6.453125 0 L 6.453125 -1.296875 L 4.90625 -1.296875 L 4.90625 -19.34375 L 1.546875 -19.34375 Z M 1.546875 -18.0625 "/></g></g></g><g fill="#39343a" fill-opacity="1"><g transform="translate(305.32524, 119.510019)"><g><path d="M 10.96875 -14.75 L 10.984375 -13.265625 C 10.191406 -14.492188 8.773438 -15.109375 6.734375 -15.109375 C 5.128906 -15.109375 3.921875 -14.734375 3.109375 -13.984375 C 2.296875 -13.242188 1.890625 -12.265625 1.890625 -11.046875 C 1.890625 -9.753906 2.234375 -8.816406 2.921875 -8.234375 C 3.609375 -7.660156 4.75 -7.171875 6.34375 -6.765625 L 8.359375 -6.21875 C 9.359375 -5.957031 10.054688 -5.632812 10.453125 -5.25 C 10.847656 -4.875 11.046875 -4.378906 11.046875 -3.765625 C 11.046875 -2.023438 9.875 -1.15625 7.53125 -1.15625 C 4.882812 -1.15625 3.414062 -2.507812 3.125 -5.21875 L 1.9375 -5.21875 L 1.9375 0 L 3.25 0 L 3.203125 -1.90625 C 4.097656 -0.394531 5.617188 0.359375 7.765625 0.359375 C 11.148438 0.359375 12.84375 -1.015625 12.84375 -3.765625 C 12.84375 -4.984375 12.503906 -5.878906 11.828125 -6.453125 C 11.148438 -7.035156 10.019531 -7.539062 8.4375 -7.96875 L 6.421875 -8.515625 C 5.410156 -8.773438 4.703125 -9.085938 4.296875 -9.453125 C 3.890625 -9.828125 3.6875 -10.363281 3.6875 -11.0625 C 3.6875 -11.820312 3.929688 -12.429688 4.421875 -12.890625 C 4.910156 -13.359375 5.679688 -13.59375 6.734375 -13.59375 C 7.503906 -13.59375 8.117188 -13.546875 8.578125 -13.453125 C 9.046875 -13.359375 9.46875 -13.164062 9.84375 -12.875 C 10.226562 -12.59375 10.515625 -12.1875 10.703125 -11.65625 C 10.890625 -11.125 11.019531 -10.421875 11.09375 -9.546875 L 12.28125 -9.546875 L 12.28125 -14.75 Z M 10.96875 -14.75 "/></g></g></g></svg>